<svg width="338" height="541" viewBox="0 0 338 541" fill="none" xmlns="http://www.w3.org/2000/svg">
<g clip-path="url(#clip0)">
<path fill-rule="evenodd" clip-rule="evenodd" d="M0 7.92272C0 3.54713 3.54712 0 7.92271 0H329.158C333.534 0 337.081 3.54712 337.081 7.92271V532.142C337.081 536.518 333.534 540.065 329.158 540.065H7.9227C3.54711 540.065 0 536.518 0 532.142V7.92272Z" fill="white"/>
<path d="M2.02094 48.2157H335.499" stroke="#E2E2E2" stroke-width="0.918477" stroke-linecap="square"/>
<path d="M134.549 34.0777C136.375 34.0777 137.726 32.9076 137.726 31.3645C137.726 29.6286 136.645 29.0114 134.601 28.6899C132.724 28.407 132.389 27.9441 132.389 27.044C132.389 26.1825 133.045 25.5524 134.305 25.5524C135.578 25.5524 136.247 26.0282 136.465 27.1855H137.468C137.288 25.5524 136.144 24.6523 134.305 24.6523C132.569 24.6523 131.348 25.7324 131.348 27.1469C131.348 28.7799 132.492 29.3843 134.421 29.68C136.17 29.9629 136.645 30.4001 136.645 31.4417C136.645 32.4832 135.732 33.1776 134.549 33.1776C132.698 33.1776 132.261 32.2518 132.119 31.1588H131.039C131.206 32.7275 132.093 34.0777 134.549 34.0777Z" fill="#B2B2B2"/>
<path d="M142.354 34.0777C143.974 34.0777 145.144 32.9976 145.286 31.5445H144.296C144.18 32.6375 143.319 33.1905 142.367 33.1905C141.068 33.1905 140.168 32.3161 140.168 30.6702V30.5673C140.168 28.9857 141.107 28.0084 142.328 28.0084C143.254 28.0084 144.026 28.407 144.193 29.4743H145.247C145.042 27.7641 143.73 27.1212 142.328 27.1212C140.528 27.1212 139.062 28.5099 139.062 30.5673V30.6702C139.062 32.7533 140.477 34.0777 142.354 34.0777Z" fill="#B2B2B2"/>
<path d="M146.897 33.962H147.965V29.8858C147.965 28.6771 148.852 28.047 149.842 28.047C150.922 28.047 151.423 28.5742 151.423 29.7572V33.962H152.491V29.8343C152.491 27.8798 151.514 27.1212 150.125 27.1212C149.019 27.1212 148.273 27.6741 147.965 28.3042V24.0222H146.897V33.962Z" fill="#B2B2B2"/>
<path d="M157.334 34.0777C158.851 34.0777 159.97 33.3705 160.202 32.0203H159.134C158.993 32.8047 158.388 33.1905 157.347 33.1905C155.971 33.1905 155.238 32.3418 155.187 30.8116H160.253V30.4644C160.253 28.0598 158.787 27.1212 157.231 27.1212C155.38 27.1212 154.081 28.5356 154.081 30.5673V30.6702C154.081 32.7404 155.431 34.0777 157.334 34.0777ZM155.225 29.9501C155.405 28.7542 156.138 28.0084 157.231 28.0084C158.337 28.0084 159.057 28.5613 159.16 29.9501H155.225Z" fill="#B2B2B2"/>
<path d="M164.424 34.0777C165.401 34.0777 166.34 33.4605 166.726 32.8047V33.962H167.793V24.0222H166.726V28.317C166.34 27.6612 165.645 27.1212 164.527 27.1212C162.675 27.1212 161.389 28.5742 161.389 30.6316V30.7344C161.389 32.8304 162.662 34.0777 164.424 34.0777ZM164.54 33.1905C163.408 33.1905 162.495 32.3804 162.495 30.683V30.5801C162.495 28.9471 163.292 28.0084 164.63 28.0084C165.941 28.0084 166.764 28.8185 166.764 30.5416V30.6444C166.764 32.3675 165.787 33.1905 164.54 33.1905Z" fill="#B2B2B2"/>
<path d="M172.228 34.0777C173.309 34.0777 174.054 33.5248 174.363 32.8947V33.962H175.43V27.2369H174.363V31.3131C174.363 32.5218 173.463 33.1519 172.511 33.1519C171.457 33.1519 170.955 32.6247 170.955 31.4417V27.2369H169.888V31.4931C169.888 33.3448 170.891 34.0777 172.228 34.0777Z" fill="#B2B2B2"/>
<path d="M177.613 33.962H178.693V24.0222H177.613V33.962Z" fill="#B2B2B2"/>
<path d="M183.629 34.0777C185.146 34.0777 186.265 33.3705 186.497 32.0203H185.429C185.288 32.8047 184.683 33.1905 183.642 33.1905C182.266 33.1905 181.533 32.3418 181.482 30.8116H186.548V30.4644C186.548 28.0598 185.082 27.1212 183.526 27.1212C181.675 27.1212 180.376 28.5356 180.376 30.5673V30.6702C180.376 32.7404 181.726 34.0777 183.629 34.0777ZM181.52 29.9501C181.7 28.7542 182.433 28.0084 183.526 28.0084C184.632 28.0084 185.352 28.5613 185.455 29.9501H181.52Z" fill="#B2B2B2"/>
<path d="M35.4053 34.0906C37.437 34.0906 38.7871 32.8433 38.7871 31.2488C38.7871 29.4101 37.6684 28.7928 35.5082 28.4971C33.9137 28.2656 33.6051 27.8927 33.6051 27.1469C33.6051 26.4397 34.1451 25.9382 35.1867 25.9382C36.2411 25.9382 36.794 26.3497 36.9612 27.3141H38.5299C38.3499 25.5525 37.1669 24.6523 35.1867 24.6523C33.2707 24.6523 31.9849 25.7839 31.9849 27.2884C31.9849 29.0114 33.0264 29.6801 35.2253 29.9758C36.7169 30.2202 37.1412 30.5416 37.1412 31.3903C37.1412 32.239 36.4211 32.8047 35.4053 32.8047C33.8494 32.8047 33.4765 32.0332 33.3608 31.1074H31.7148C31.8434 32.8433 32.8978 34.0906 35.4053 34.0906Z" fill="#0C0C0C"/>
<path d="M42.5018 34.0906C43.5948 34.0906 44.302 33.5634 44.6363 32.9076V33.962H46.1922V27.2369H44.6363V31.236C44.6363 32.3033 43.9034 32.8433 43.0676 32.8433C42.1674 32.8433 41.7431 32.3804 41.7431 31.3646V27.2369H40.1872V31.5446C40.1872 33.332 41.1773 34.0906 42.5018 34.0906Z" fill="#0C0C0C"/>
<path d="M48.037 33.962H49.5929V29.9373C49.5929 28.9086 50.3002 28.3942 51.0717 28.3942C51.8303 28.3942 52.2675 28.8186 52.2675 29.8087V33.962H53.8234V29.9373C53.8234 28.9086 54.5307 28.3942 55.3022 28.3942C56.0737 28.3942 56.498 28.8186 56.498 29.8087V33.962H58.0539V29.7058C58.0539 27.8542 57.051 27.0955 55.8165 27.0955C54.9807 27.0955 54.0549 27.4684 53.5405 28.3042C53.2062 27.4684 52.5119 27.0955 51.6375 27.0955C50.6473 27.0955 49.9144 27.6356 49.5929 28.2656V27.2369H48.037V33.962Z" fill="#0C0C0C"/>
<path d="M59.8409 33.962H61.3968V29.9373C61.3968 28.9086 62.104 28.3942 62.8755 28.3942C63.6342 28.3942 64.0714 28.8186 64.0714 29.8087V33.962H65.6273V29.9373C65.6273 28.9086 66.3345 28.3942 67.1061 28.3942C67.8776 28.3942 68.3019 28.8186 68.3019 29.8087V33.962H69.8578V29.7058C69.8578 27.8542 68.8548 27.0955 67.6204 27.0955C66.7846 27.0955 65.8588 27.4684 65.3444 28.3042C65.0101 27.4684 64.3157 27.0955 63.4413 27.0955C62.4512 27.0955 61.7183 27.6356 61.3968 28.2656V27.2369H59.8409V33.962Z" fill="#0C0C0C"/>
<path d="M73.4064 34.0906C74.4351 34.0906 75.0266 33.7177 75.4638 33.1391V33.962H76.994V29.5515C76.994 27.7127 75.811 27.0955 74.3065 27.0955C72.802 27.0955 71.5548 27.7513 71.4262 29.32H72.9306C73.0078 28.6514 73.4064 28.2656 74.2165 28.2656C75.1295 28.2656 75.4381 28.7157 75.4381 29.6158V29.963H74.6023C72.6735 29.963 71.1561 30.5288 71.1561 32.0975C71.1561 33.4991 72.172 34.0906 73.4064 34.0906ZM73.7793 32.9719C73.0078 32.9719 72.6992 32.599 72.6992 32.0332C72.6992 31.2103 73.4578 30.9402 74.6408 30.9402H75.4381V31.6089C75.4381 32.4704 74.7309 32.9719 73.7793 32.9719Z" fill="#0C0C0C"/>
<path d="M78.7773 33.962H80.3332V30.4645C80.3332 29.0372 81.1562 28.6 82.5192 28.5871V27.1341C81.3876 27.1469 80.7576 27.6484 80.3332 28.4971V27.2369H78.7773V33.962Z" fill="#0C0C0C"/>
<path d="M84.6967 36.2637H86.2269L89.8916 27.2369H88.3743L86.7284 31.5703L84.941 27.2369H83.2566L85.9183 33.2805L84.6967 36.2637Z" fill="#0C0C0C"/>
<path d="M250.158 185.615H250.971V183.865C252.762 183.755 254.043 182.543 254.043 180.972C254.043 179.195 252.996 178.548 250.971 178.189V174.745C251.99 174.883 252.555 175.434 252.762 176.495H253.837C253.657 174.897 252.624 173.96 250.971 173.808V172.554H250.158V173.794C248.436 173.905 247.251 175.021 247.251 176.453C247.251 178.107 248.339 178.754 250.158 179.099V182.929C248.477 182.777 248.147 181.826 248.009 180.752H246.852C247.017 182.336 247.802 183.7 250.158 183.865V185.615ZM252.9 181.055C252.9 182.074 252.073 182.818 250.971 182.929V179.236C252.473 179.553 252.9 180.035 252.9 181.055ZM248.339 176.343C248.339 175.489 249.001 174.828 250.158 174.731V178.052C248.629 177.735 248.339 177.211 248.339 176.343Z" fill="#0C0C0C"/>
<path d="M259.94 183.755H261.111V181.689H262.475V180.711H261.111V173.905H259.513L255.008 181.303V181.689H259.94V183.755ZM256.523 180.711L259.94 174.814V180.711H256.523Z" fill="#0C0C0C"/>
<path d="M266.705 183.879C268.744 183.879 270.204 182.805 270.204 181.014C270.204 179.65 269.46 178.837 268.303 178.534C269.199 178.162 269.86 177.5 269.86 176.384C269.86 175.021 268.772 173.781 266.898 173.781C265.024 173.781 263.743 175.062 263.674 176.619H264.721C264.845 175.503 265.672 174.759 266.898 174.759C268.097 174.759 268.689 175.475 268.689 176.412C268.689 177.487 268.124 178.093 266.843 178.093H266.154V179.099H266.898C268.289 179.099 268.978 179.746 268.978 181.014C268.978 182.171 268.276 182.915 266.733 182.915C265.176 182.915 264.473 182.019 264.363 180.848H263.261C263.33 182.57 264.611 183.879 266.705 183.879Z" fill="#0C0C0C"/>
<path d="M274.688 183.879C276.727 183.879 278.188 182.805 278.188 181.014C278.188 179.65 277.444 178.837 276.287 178.534C277.182 178.162 277.843 177.5 277.843 176.384C277.843 175.021 276.755 173.781 274.881 173.781C273.008 173.781 271.726 175.062 271.657 176.619H272.705C272.829 175.503 273.655 174.759 274.881 174.759C276.08 174.759 276.672 175.475 276.672 176.412C276.672 177.487 276.107 178.093 274.826 178.093H274.137V179.099H274.881C276.273 179.099 276.962 179.746 276.962 181.014C276.962 182.171 276.259 182.915 274.716 182.915C273.159 182.915 272.457 182.019 272.346 180.848H271.244C271.313 182.57 272.594 183.879 274.688 183.879Z" fill="#0C0C0C"/>
<path d="M279.715 185.45L281.409 182.57L280.293 182.047L278.971 185.064L279.715 185.45Z" fill="#0C0C0C"/>
<path d="M285.768 183.879C287.642 183.879 289.144 182.612 289.144 180.531C289.144 178.52 287.849 177.266 286.085 177.266C285.148 177.266 284.473 177.569 284.074 177.941V174.938H288.62V173.905H283.082V179.181H283.523C284.046 178.589 284.708 178.231 285.851 178.231C287.105 178.231 287.918 179.14 287.918 180.531C287.918 182.019 287.091 182.915 285.755 182.915C284.253 182.915 283.826 182.171 283.633 181.096H282.489C282.627 182.708 283.647 183.879 285.768 183.879Z" fill="#0C0C0C"/>
<path d="M291.246 183.755H292.472L296.165 174.07V173.905H289.675V174.869H294.677L291.246 183.755Z" fill="#0C0C0C"/>
<path d="M298.868 183.755H300.067V173.905H298.951L296.664 175.558V176.674L298.868 175.089V183.755Z" fill="#0C0C0C"/>
<path d="M251.635 141.505H252.806V139.439H254.17V138.461H252.806V131.655H251.208L246.703 139.053V139.439H251.635V141.505ZM248.219 138.461L251.635 132.564V138.461H248.219Z" fill="#0C0C0C"/>
<path d="M256.147 141.505H257.373L261.066 131.82V131.655H254.577V132.619H259.578L256.147 141.505Z" fill="#0C0C0C"/>
<path d="M248.924 226.207H250.067C248.827 224.664 247.835 222.708 247.835 219.87C247.835 217.032 248.827 215.062 250.067 213.519H248.924C247.656 215.007 246.637 217.128 246.637 219.87C246.637 222.612 247.656 224.719 248.924 226.207Z" fill="#0C0C0C"/>
<path d="M254.009 226.028H254.822V224.279C256.613 224.168 257.894 222.956 257.894 221.385C257.894 219.608 256.847 218.961 254.822 218.602V215.158C255.841 215.296 256.406 215.847 256.613 216.908H257.687C257.508 215.31 256.475 214.373 254.822 214.221V212.968H254.009V214.207C252.287 214.318 251.102 215.434 251.102 216.866C251.102 218.52 252.19 219.167 254.009 219.512V223.342C252.328 223.19 251.997 222.24 251.86 221.165H250.702C250.868 222.749 251.653 224.113 254.009 224.279V226.028ZM256.751 221.468C256.751 222.488 255.924 223.232 254.822 223.342V219.649C256.323 219.966 256.751 220.449 256.751 221.468ZM252.19 216.756C252.19 215.902 252.852 215.241 254.009 215.144V218.465C252.48 218.148 252.19 217.624 252.19 216.756Z" fill="#0C0C0C"/>
<path d="M263.195 223.3C261.556 223.3 260.509 222.005 260.509 219.512V218.961C260.509 216.536 261.501 215.158 263.168 215.158C264.835 215.158 265.799 216.646 265.799 218.933V219.484C265.799 221.978 264.917 223.3 263.195 223.3ZM263.195 224.292C265.62 224.292 267.012 222.364 267.012 219.498V218.947C267.012 216.136 265.593 214.194 263.168 214.194C260.757 214.194 259.283 216.067 259.283 218.974V219.525C259.283 222.391 260.839 224.292 263.195 224.292Z" fill="#0C0C0C"/>
<path d="M267.845 226.166H268.989C270.256 224.678 271.276 222.556 271.276 219.815C271.276 217.073 270.256 214.965 268.989 213.477H267.845C269.085 215.02 270.077 216.977 270.077 219.815C270.077 222.653 269.085 224.623 267.845 226.166Z" fill="#0C0C0C"/>
<path d="M33.3828 183.755H34.5814V179.746H36.1796C38.0533 179.746 39.6239 178.933 39.6239 176.839V176.784C39.6239 174.731 38.067 173.905 36.1796 173.905H33.3828V183.755ZM34.5814 178.796V174.869H36.2622C37.5986 174.869 38.4253 175.393 38.4253 176.784V176.839C38.4253 178.107 37.6675 178.796 36.2622 178.796H34.5814Z" fill="#727272"/>
<path d="M43.043 183.879C44.1038 183.879 44.7513 183.521 45.2886 182.846V183.755H46.4321V179.002C46.4321 176.991 45.1784 176.426 43.8007 176.426C42.4092 176.426 41.1004 177.032 40.9488 178.672H42.0923C42.2026 177.79 42.7536 177.377 43.7456 177.377C44.8478 177.377 45.2886 177.859 45.2886 179.002V179.526H44.2554C42.4092 179.526 40.6457 180.091 40.6457 181.758C40.6457 183.232 41.7066 183.879 43.043 183.879ZM43.1532 182.97C42.1475 182.97 41.7892 182.502 41.7892 181.758C41.7892 180.697 42.8501 180.339 44.2967 180.339H45.2886V181.234C45.2886 182.35 44.3656 182.97 43.1532 182.97Z" fill="#727272"/>
<path d="M49.1241 186.263H50.2814L54.263 176.55H53.0919L51.0942 181.716L48.8899 176.55H47.6637L50.488 183.011L49.1241 186.263Z" fill="#727272"/>
<path d="M58.5704 182.929C57.11 182.929 56.2145 181.854 56.2145 180.215V180.105C56.2145 178.451 57.1238 177.377 58.5704 177.377C60.0032 177.377 60.9263 178.451 60.9263 180.118V180.215C60.9263 181.84 60.017 182.929 58.5704 182.929ZM58.5566 183.879C60.6094 183.879 62.1111 182.378 62.1111 180.201V180.091C62.1111 177.928 60.6094 176.426 58.5704 176.426C56.5313 176.426 55.0296 177.941 55.0296 180.105V180.215C55.0296 182.323 56.5038 183.879 58.5566 183.879Z" fill="#727272"/>
<path d="M66.3202 183.879C67.4775 183.879 68.2766 183.287 68.6072 182.612V183.755H69.7507V176.55H68.6072V180.917C68.6072 182.212 67.6428 182.887 66.6233 182.887C65.4936 182.887 64.9563 182.323 64.9563 181.055V176.55H63.8128V181.11C63.8128 183.094 64.8874 183.879 66.3202 183.879Z" fill="#727272"/>
<path d="M74.2524 183.852C74.7209 183.852 74.9964 183.783 75.2306 183.7V182.736C74.9826 182.832 74.7071 182.887 74.3489 182.887C73.7702 182.887 73.4534 182.543 73.4534 181.84V177.514H75.1342V176.55H73.4534V174.911H72.3098V176.55H71.2766V177.514H72.3098V181.951C72.3098 183.08 72.9436 183.852 74.2524 183.852Z" fill="#727272"/>
<path d="M36.5659 141.629C38.5222 141.629 39.9688 140.376 39.9688 138.722C39.9688 136.863 38.8115 136.201 36.621 135.857C34.6095 135.554 34.2513 135.058 34.2513 134.093C34.2513 133.17 34.9539 132.495 36.3041 132.495C37.668 132.495 38.3844 133.005 38.6186 134.245H39.6933C39.5004 132.495 38.2742 131.531 36.3041 131.531C34.4442 131.531 33.1353 132.688 33.1353 134.204C33.1353 135.953 34.3615 136.601 36.4281 136.918C38.3018 137.221 38.8115 137.689 38.8115 138.805C38.8115 139.921 37.8334 140.665 36.5659 140.665C34.5819 140.665 34.1135 139.673 33.962 138.502H32.8047C32.9838 140.183 33.9344 141.629 36.5659 141.629Z" fill="#727272"/>
<path d="M44.8866 141.629C46.5123 141.629 47.7109 140.872 47.9589 139.425H46.8154C46.6639 140.266 46.0163 140.679 44.9004 140.679C43.4262 140.679 42.6409 139.77 42.5858 138.13H48.014V137.758C48.014 135.182 46.4434 134.176 44.7764 134.176C42.7925 134.176 41.401 135.691 41.401 137.868V137.979C41.401 140.197 42.8476 141.629 44.8866 141.629ZM42.6272 137.207C42.82 135.926 43.6053 135.127 44.7764 135.127C45.9612 135.127 46.7327 135.719 46.843 137.207H42.6272Z" fill="#727272"/>
<path d="M49.7962 141.505H50.9535V130.856H49.7962V141.505Z" fill="#727272"/>
<path d="M56.242 141.629C57.8677 141.629 59.0663 140.872 59.3143 139.425H58.1708C58.0193 140.266 57.3717 140.679 56.2558 140.679C54.7816 140.679 53.9963 139.77 53.9412 138.13H59.3694V137.758C59.3694 135.182 57.7988 134.176 56.1318 134.176C54.1479 134.176 52.7564 135.691 52.7564 137.868V137.979C52.7564 140.197 54.203 141.629 56.242 141.629ZM53.9825 137.207C54.1754 135.926 54.9607 135.127 56.1318 135.127C57.3166 135.127 58.0881 135.719 58.1984 137.207H53.9825Z" fill="#727272"/>
<path d="M64.1137 141.629C65.8496 141.629 67.1034 140.472 67.2549 138.915H66.1941C66.0701 140.086 65.147 140.679 64.1275 140.679C62.736 140.679 61.7716 139.742 61.7716 137.979V137.868C61.7716 136.174 62.7773 135.127 64.0862 135.127C65.0781 135.127 65.9047 135.554 66.0838 136.697H67.2136C66.9931 134.865 65.5879 134.176 64.0862 134.176C62.1574 134.176 60.5868 135.664 60.5868 137.868V137.979C60.5868 140.21 62.1022 141.629 64.1137 141.629Z" fill="#727272"/>
<path d="M71.1719 141.602C71.6403 141.602 71.9159 141.533 72.1501 141.45V140.486C71.9021 140.582 71.6266 140.637 71.2684 140.637C70.6897 140.637 70.3728 140.293 70.3728 139.59V135.264H72.0537V134.3H70.3728V132.661H69.2293V134.3H68.1961V135.264H69.2293V139.701C69.2293 140.83 69.8631 141.602 71.1719 141.602Z" fill="#727272"/>
<path d="M76.827 141.629C78.4527 141.629 79.6513 140.872 79.8993 139.425H78.7558C78.6043 140.266 77.9567 140.679 76.8408 140.679C75.3666 140.679 74.5813 139.77 74.5262 138.13H79.9544V137.758C79.9544 135.182 78.3838 134.176 76.7168 134.176C74.7329 134.176 73.3414 135.691 73.3414 137.868V137.979C73.3414 140.197 74.788 141.629 76.827 141.629ZM74.5676 137.207C74.7604 135.926 75.5457 135.127 76.7168 135.127C77.9016 135.127 78.6731 135.719 78.7834 137.207H74.5676Z" fill="#727272"/>
<path d="M84.4232 141.629C85.4702 141.629 86.476 140.968 86.8893 140.266V141.505H88.0328V130.856H86.8893V135.457C86.476 134.755 85.732 134.176 84.5334 134.176C82.5495 134.176 81.1718 135.733 81.1718 137.937V138.047C81.1718 140.293 82.5357 141.629 84.4232 141.629ZM84.5472 140.679C83.3348 140.679 82.3566 139.811 82.3566 137.992V137.882C82.3566 136.132 83.2108 135.127 84.6436 135.127C86.0489 135.127 86.9306 135.995 86.9306 137.841V137.951C86.9306 139.797 85.8836 140.679 84.5472 140.679Z" fill="#727272"/>
<path d="M97.258 141.629C99.2144 141.629 100.661 140.376 100.661 138.722C100.661 136.863 99.5037 136.201 97.3131 135.857C95.3016 135.554 94.9434 135.058 94.9434 134.093C94.9434 133.17 95.6461 132.495 96.9962 132.495C98.3602 132.495 99.0766 133.005 99.3108 134.245H100.385C100.193 132.495 98.9664 131.531 96.9962 131.531C95.1363 131.531 93.8275 132.688 93.8275 134.204C93.8275 135.953 95.0536 136.601 97.1202 136.918C98.9939 137.221 99.5037 137.689 99.5037 138.805C99.5037 139.921 98.5255 140.665 97.258 140.665C95.2741 140.665 94.8057 139.673 94.6541 138.502H93.4968C93.6759 140.183 94.6266 141.629 97.258 141.629Z" fill="#727272"/>
<path d="M105.002 141.629C106.159 141.629 106.958 141.037 107.289 140.362V141.505H108.432V134.3H107.289V138.667C107.289 139.962 106.324 140.637 105.305 140.637C104.175 140.637 103.638 140.073 103.638 138.805V134.3H102.494V138.86C102.494 140.844 103.569 141.629 105.002 141.629Z" fill="#727272"/>
<path d="M114.325 141.629C116.309 141.629 117.604 140.114 117.604 137.91V137.799C117.604 135.554 116.213 134.176 114.325 134.176C113.278 134.176 112.3 134.81 111.887 135.512V130.856H110.743V141.505H111.887V140.321C112.3 141.037 113.154 141.629 114.325 141.629ZM114.215 140.679C112.81 140.679 111.846 139.811 111.846 137.965V137.855C111.846 136.008 112.865 135.127 114.201 135.127C115.414 135.127 116.42 136.036 116.42 137.855V137.965C116.42 139.714 115.648 140.679 114.215 140.679Z" fill="#727272"/>
<path d="M121.613 141.629C123.363 141.629 124.258 140.748 124.258 139.439C124.258 137.91 123.211 137.579 121.723 137.303C120.401 137.069 120.042 136.807 120.042 136.16C120.042 135.54 120.58 135.127 121.406 135.127C122.316 135.127 122.756 135.471 122.922 136.256H124.024C123.831 134.7 122.715 134.176 121.42 134.176C120.29 134.176 118.981 134.865 118.981 136.201C118.981 137.455 119.615 137.979 121.489 138.323C122.605 138.53 123.17 138.778 123.17 139.535C123.17 140.307 122.688 140.679 121.599 140.679C120.442 140.679 119.987 140.142 119.905 139.287H118.789C118.857 140.761 119.891 141.629 121.613 141.629Z" fill="#727272"/>
<path d="M128.99 141.629C130.726 141.629 131.98 140.472 132.131 138.915H131.07C130.946 140.086 130.023 140.679 129.004 140.679C127.612 140.679 126.648 139.742 126.648 137.979V137.868C126.648 136.174 127.654 135.127 128.963 135.127C129.955 135.127 130.781 135.554 130.96 136.697H132.09C131.87 134.865 130.464 134.176 128.963 134.176C127.034 134.176 125.463 135.664 125.463 137.868V137.979C125.463 140.21 126.979 141.629 128.99 141.629Z" fill="#727272"/>
<path d="M133.858 141.505H135.001V137.551C135.001 135.774 135.924 135.32 137.371 135.251V134.176C136.076 134.217 135.456 134.782 135.001 135.595V134.3H133.858V141.505Z" fill="#727272"/>
<path d="M139.065 141.505H140.209V134.3H139.065V141.505ZM139.616 132.798C140.03 132.798 140.374 132.454 140.374 132.041C140.374 131.627 140.03 131.283 139.616 131.283C139.203 131.283 138.859 131.627 138.859 132.041C138.859 132.454 139.203 132.798 139.616 132.798Z" fill="#727272"/>
<path d="M142.549 144.013H143.693V140.321C144.106 141.037 144.946 141.629 146.131 141.629C148.115 141.629 149.41 140.114 149.41 137.91V137.799C149.41 135.554 148.019 134.176 146.131 134.176C145.084 134.176 144.106 134.81 143.693 135.512V134.3H142.549V144.013ZM146.021 140.679C144.616 140.679 143.651 139.811 143.651 137.965V137.855C143.651 136.008 144.671 135.127 146.007 135.127C147.22 135.127 148.225 136.036 148.225 137.855V137.965C148.225 139.714 147.454 140.679 146.021 140.679Z" fill="#727272"/>
<path d="M153.377 141.602C153.846 141.602 154.121 141.533 154.356 141.45V140.486C154.108 140.582 153.832 140.637 153.474 140.637C152.895 140.637 152.578 140.293 152.578 139.59V135.264H154.259V134.3H152.578V132.661H151.435V134.3H150.402V135.264H151.435V139.701C151.435 140.83 152.069 141.602 153.377 141.602Z" fill="#727272"/>
<path d="M156.112 141.505H157.255V134.3H156.112V141.505ZM156.663 132.798C157.076 132.798 157.421 132.454 157.421 132.041C157.421 131.627 157.076 131.283 156.663 131.283C156.25 131.283 155.905 131.627 155.905 132.041C155.905 132.454 156.25 132.798 156.663 132.798Z" fill="#727272"/>
<path d="M162.599 140.679C161.139 140.679 160.243 139.604 160.243 137.965V137.855C160.243 136.201 161.153 135.127 162.599 135.127C164.032 135.127 164.955 136.201 164.955 137.868V137.965C164.955 139.59 164.046 140.679 162.599 140.679ZM162.585 141.629C164.638 141.629 166.14 140.128 166.14 137.951V137.841C166.14 135.678 164.638 134.176 162.599 134.176C160.56 134.176 159.058 135.691 159.058 137.855V137.965C159.058 140.073 160.533 141.629 162.585 141.629Z" fill="#727272"/>
<path d="M167.91 141.505H169.054V137.138C169.054 135.843 170.005 135.168 171.065 135.168C172.223 135.168 172.76 135.733 172.76 137V141.505H173.904V137.083C173.904 134.989 172.856 134.176 171.369 134.176C170.184 134.176 169.385 134.768 169.054 135.444V134.3H167.91V141.505Z" fill="#727272"/>
<path d="M178.376 141.629C180.126 141.629 181.022 140.748 181.022 139.439C181.022 137.91 179.975 137.579 178.487 137.303C177.164 137.069 176.806 136.807 176.806 136.16C176.806 135.54 177.343 135.127 178.17 135.127C179.079 135.127 179.52 135.471 179.685 136.256H180.787C180.595 134.7 179.479 134.176 178.184 134.176C177.054 134.176 175.745 134.865 175.745 136.201C175.745 137.455 176.379 137.979 178.252 138.323C179.368 138.53 179.933 138.778 179.933 139.535C179.933 140.307 179.451 140.679 178.363 140.679C177.205 140.679 176.751 140.142 176.668 139.287H175.552C175.621 140.761 176.654 141.629 178.376 141.629Z" fill="#727272"/>
<path d="M37.5039 224.293C39.7083 224.293 41.2789 223.177 41.6233 220.903H40.5073C40.2593 222.502 39.1434 223.314 37.5315 223.314C35.4098 223.314 34.1423 221.799 34.1423 219.291V219.181C34.1423 216.701 35.5062 215.117 37.5452 215.117C39.2261 215.117 40.094 215.888 40.342 217.39H41.5268C41.3202 215.255 39.5843 214.166 37.5315 214.166C34.8587 214.166 32.9023 216.274 32.9023 219.195V219.305C32.9023 222.336 34.652 224.293 37.5039 224.293Z" fill="#727272"/>
<path d="M45.305 224.293C46.3659 224.293 47.0134 223.934 47.5507 223.259V224.169H48.6942V219.415C48.6942 217.404 47.4405 216.839 46.0628 216.839C44.6713 216.839 43.3624 217.445 43.2109 219.085H44.3544C44.4646 218.203 45.0157 217.79 46.0077 217.79C47.1098 217.79 47.5507 218.272 47.5507 219.415V219.939H46.5174C44.6713 219.939 42.9078 220.504 42.9078 222.171C42.9078 223.645 43.9686 224.293 45.305 224.293ZM45.4152 223.383C44.4095 223.383 44.0513 222.915 44.0513 222.171C44.0513 221.11 45.1121 220.752 46.5587 220.752H47.5507V221.647C47.5507 222.763 46.6276 223.383 45.4152 223.383Z" fill="#727272"/>
<path d="M50.9404 224.169H52.0839V219.801C52.0839 218.506 53.0345 217.831 54.0954 217.831C55.2527 217.831 55.79 218.396 55.79 219.663V224.169H56.9335V219.746C56.9335 217.652 55.8864 216.839 54.3985 216.839C53.2136 216.839 52.4146 217.432 52.0839 218.107V216.963H50.9404V224.169Z" fill="#727272"/>
<path d="M62.1641 224.293C63.9 224.293 65.1537 223.135 65.3053 221.578H64.2444C64.1204 222.749 63.1973 223.342 62.1778 223.342C60.7863 223.342 59.8219 222.405 59.8219 220.642V220.531C59.8219 218.837 60.8277 217.79 62.1365 217.79C63.1285 217.79 63.9551 218.217 64.1342 219.36H65.2639C65.0435 217.528 63.6382 216.839 62.1365 216.839C60.2077 216.839 58.6371 218.327 58.6371 220.531V220.642C58.6371 222.873 60.1526 224.293 62.1641 224.293Z" fill="#727272"/>
<path d="M69.98 224.293C71.6057 224.293 72.8043 223.535 73.0523 222.088H71.9088C71.7573 222.929 71.1097 223.342 69.9938 223.342C68.5196 223.342 67.7343 222.433 67.6792 220.793H73.1074V220.421C73.1074 217.845 71.5368 216.839 69.8698 216.839C67.8859 216.839 66.4944 218.355 66.4944 220.531V220.642C66.4944 222.86 67.941 224.293 69.98 224.293ZM67.7206 219.87C67.9134 218.589 68.6987 217.79 69.8698 217.79C71.0546 217.79 71.8262 218.382 71.9364 219.87H67.7206Z" fill="#727272"/>
<path d="M74.8896 224.169H76.0469V213.519H74.8896V224.169Z" fill="#727272"/>
<path d="M78.4146 224.169H79.5719V213.519H78.4146V224.169Z" fill="#727272"/>
<path d="M83.7169 224.293C84.7778 224.293 85.4253 223.934 85.9626 223.259V224.169H87.1061V219.415C87.1061 217.404 85.8524 216.839 84.4747 216.839C83.0832 216.839 81.7743 217.445 81.6228 219.085H82.7663C82.8765 218.203 83.4276 217.79 84.4195 217.79C85.5217 217.79 85.9626 218.272 85.9626 219.415V219.939H84.9293C83.0832 219.939 81.3197 220.504 81.3197 222.171C81.3197 223.645 82.3805 224.293 83.7169 224.293ZM83.8271 223.383C82.8214 223.383 82.4632 222.915 82.4632 222.171C82.4632 221.11 83.524 220.752 84.9706 220.752H85.9626V221.647C85.9626 222.763 85.0395 223.383 83.8271 223.383Z" fill="#727272"/>
<path d="M91.5429 224.265C92.0113 224.265 92.2868 224.196 92.5211 224.113V223.149C92.2731 223.245 91.9975 223.301 91.6393 223.301C91.0607 223.301 90.7438 222.956 90.7438 222.254V217.927H92.4246V216.963H90.7438V215.324H89.6003V216.963H88.567V217.927H89.6003V222.364C89.6003 223.493 90.2341 224.265 91.5429 224.265Z" fill="#727272"/>
<path d="M94.2772 224.169H95.4207V216.963H94.2772V224.169ZM94.8283 215.461C95.2416 215.461 95.586 215.117 95.586 214.704C95.586 214.29 95.2416 213.946 94.8283 213.946C94.415 213.946 94.0706 214.29 94.0706 214.704C94.0706 215.117 94.415 215.461 94.8283 215.461Z" fill="#727272"/>
<path d="M100.765 223.342C99.3043 223.342 98.4087 222.267 98.4087 220.628V220.518C98.4087 218.864 99.318 217.79 100.765 217.79C102.197 217.79 103.121 218.864 103.121 220.531V220.628C103.121 222.254 102.211 223.342 100.765 223.342ZM100.751 224.293C102.804 224.293 104.305 222.791 104.305 220.614V220.504C104.305 218.341 102.804 216.839 100.765 216.839C98.7256 216.839 97.2239 218.355 97.2239 220.518V220.628C97.2239 222.736 98.6981 224.293 100.751 224.293Z" fill="#727272"/>
<path d="M106.076 224.169H107.219V219.801C107.219 218.506 108.17 217.831 109.231 217.831C110.388 217.831 110.926 218.396 110.926 219.663V224.169H112.069V219.746C112.069 217.652 111.022 216.839 109.534 216.839C108.349 216.839 107.55 217.432 107.219 218.107V216.963H106.076V224.169Z" fill="#727272"/>
<path d="M116.542 224.293C118.292 224.293 119.187 223.411 119.187 222.102C119.187 220.573 118.14 220.242 116.652 219.967C115.329 219.732 114.971 219.471 114.971 218.823C114.971 218.203 115.509 217.79 116.335 217.79C117.244 217.79 117.685 218.134 117.851 218.919H118.953C118.76 217.363 117.644 216.839 116.349 216.839C115.219 216.839 113.91 217.528 113.91 218.864C113.91 220.118 114.544 220.642 116.418 220.986C117.534 221.193 118.099 221.441 118.099 222.198C118.099 222.97 117.616 223.342 116.528 223.342C115.371 223.342 114.916 222.805 114.833 221.95H113.718C113.786 223.425 114.82 224.293 116.542 224.293Z" fill="#727272"/>
<path d="M0.472656 254.418H336.623" stroke="#EDEDED" stroke-width="0.918477" stroke-linecap="square"/>
<path d="M30.5195 103.848H32.3519V100.1H33.7296C35.8375 100.1 37.3392 99.1773 37.3392 97.0969V97.0418C37.3392 94.9752 35.8926 93.997 33.6883 93.997H30.5195V103.848ZM32.3519 98.7777V95.4161H33.6883C34.8593 95.4161 35.5482 95.8707 35.5482 97.0418V97.0969C35.5482 98.1853 34.9007 98.7777 33.6883 98.7777H32.3519Z" fill="#0C0C0C"/>
<path d="M40.5301 103.985C41.6323 103.985 42.2661 103.586 42.7345 102.966V103.848H44.374V99.1221C44.374 97.152 43.1065 96.4907 41.4945 96.4907C39.8826 96.4907 38.5462 97.1933 38.4085 98.8742H40.0204C40.1031 98.1577 40.5301 97.7444 41.3981 97.7444C42.3763 97.7444 42.7069 98.2266 42.7069 99.191V99.563H41.8114C39.7448 99.563 38.1191 100.169 38.1191 101.85C38.1191 103.352 39.2075 103.985 40.5301 103.985ZM40.9297 102.787C40.1031 102.787 39.7724 102.387 39.7724 101.781C39.7724 100.899 40.5853 100.61 41.8528 100.61H42.7069V101.326C42.7069 102.25 41.9492 102.787 40.9297 102.787Z" fill="#0C0C0C"/>
<path d="M46.882 106.314H48.5214L52.4479 96.6423H50.8222L49.0587 101.285L47.1437 96.6423H45.3389L48.1908 103.118L46.882 106.314Z" fill="#0C0C0C"/>
<path d="M56.6528 102.69C55.3853 102.69 54.6551 101.767 54.6551 100.293V100.183C54.6551 98.6951 55.4128 97.7995 56.6528 97.7995C57.8927 97.7995 58.6367 98.7088 58.6367 100.197V100.293C58.6367 101.767 57.8927 102.69 56.6528 102.69ZM56.639 103.985C58.7607 103.985 60.345 102.525 60.345 100.279V100.169C60.345 97.9649 58.7607 96.4907 56.6528 96.4907C54.5311 96.4907 52.9467 97.9786 52.9467 100.211V100.321C52.9467 102.511 54.5173 103.985 56.639 103.985Z" fill="#0C0C0C"/>
<path d="M64.2623 103.985C65.4333 103.985 66.1911 103.421 66.5493 102.718V103.848H68.2163V96.6423H66.5493V100.927C66.5493 102.07 65.764 102.649 64.8685 102.649C63.9041 102.649 63.4494 102.153 63.4494 101.065V96.6423H61.7824V101.258C61.7824 103.173 62.8432 103.985 64.2623 103.985Z" fill="#0C0C0C"/>
<path d="M72.6452 103.972C73.155 103.972 73.5132 103.889 73.775 103.793V102.47C73.5408 102.566 73.2928 102.608 72.9621 102.608C72.4386 102.608 72.1355 102.318 72.1355 101.685V97.896H73.7199V96.6423H72.1355V95.0579H70.4684V96.6423H69.504V97.896H70.4684V101.836C70.4684 103.2 71.2124 103.972 72.6452 103.972Z" fill="#0C0C0C"/>
<path d="M82.0471 103.985C84.2239 103.985 85.6705 102.649 85.6705 100.941C85.6705 98.9706 84.4718 98.3093 82.1573 97.9924C80.4489 97.7444 80.1183 97.3449 80.1183 96.5458C80.1183 95.7881 80.6969 95.2508 81.8129 95.2508C82.9426 95.2508 83.535 95.6916 83.7141 96.7249H85.3949C85.202 94.8374 83.9345 93.873 81.8129 93.873C79.7601 93.873 78.3823 95.0854 78.3823 96.6974C78.3823 98.5435 79.4983 99.2599 81.8542 99.5768C83.4523 99.8386 83.907 100.183 83.907 101.092C83.907 102.002 83.1355 102.608 82.0471 102.608C80.38 102.608 79.9805 101.781 79.8565 100.789H78.093C78.2308 102.649 79.3605 103.985 82.0471 103.985Z" fill="#0C0C0C"/>
<path d="M89.6504 103.985C90.8215 103.985 91.5792 103.421 91.9375 102.718V103.848H93.6045V96.6423H91.9375V100.927C91.9375 102.07 91.1522 102.649 90.2566 102.649C89.2922 102.649 88.8376 102.153 88.8376 101.065V96.6423H87.1706V101.258C87.1706 103.173 88.2314 103.985 89.6504 103.985Z" fill="#0C0C0C"/>
<path d="M95.5811 103.848H97.2481V99.5355C97.2481 98.4333 98.0059 97.8822 98.8325 97.8822C99.6453 97.8822 100.114 98.3368 100.114 99.3977V103.848H101.781V99.5355C101.781 98.4333 102.539 97.8822 103.365 97.8822C104.192 97.8822 104.646 98.3368 104.646 99.3977V103.848H106.313V99.2875C106.313 97.3036 105.239 96.4907 103.916 96.4907C103.021 96.4907 102.029 96.8902 101.478 97.7858C101.119 96.8902 100.376 96.4907 99.4387 96.4907C98.3778 96.4907 97.5926 97.0693 97.2481 97.7444V96.6423H95.5811V103.848Z" fill="#0C0C0C"/>
<path d="M108.228 103.848H109.895V99.5355C109.895 98.4333 110.653 97.8822 111.479 97.8822C112.292 97.8822 112.761 98.3368 112.761 99.3977V103.848H114.428V99.5355C114.428 98.4333 115.186 97.8822 116.012 97.8822C116.839 97.8822 117.293 98.3368 117.293 99.3977V103.848H118.96V99.2875C118.96 97.3036 117.886 96.4907 116.563 96.4907C115.668 96.4907 114.676 96.8902 114.125 97.7858C113.766 96.8902 113.023 96.4907 112.086 96.4907C111.025 96.4907 110.24 97.0693 109.895 97.7444V96.6423H108.228V103.848Z" fill="#0C0C0C"/>
<path d="M122.763 103.985C123.865 103.985 124.498 103.586 124.967 102.966V103.848H126.606V99.1221C126.606 97.152 125.339 96.4907 123.727 96.4907C122.115 96.4907 120.779 97.1933 120.641 98.8742H122.253C122.335 98.1577 122.763 97.7444 123.631 97.7444C124.609 97.7444 124.939 98.2266 124.939 99.191V99.563H124.044C121.977 99.563 120.352 100.169 120.352 101.85C120.352 103.352 121.44 103.985 122.763 103.985ZM123.162 102.787C122.335 102.787 122.005 102.387 122.005 101.781C122.005 100.899 122.818 100.61 124.085 100.61H124.939V101.326C124.939 102.25 124.182 102.787 123.162 102.787Z" fill="#0C0C0C"/>
<path d="M128.517 103.848H130.184V100.1C130.184 98.5711 131.066 98.1026 132.526 98.0889V96.532C131.314 96.5458 130.639 97.0831 130.184 97.9924V96.6423H128.517V103.848Z" fill="#0C0C0C"/>
<path d="M134.859 106.314H136.499L140.425 96.6423H138.8L137.036 101.285L135.121 96.6423H133.316L136.168 103.118L134.859 106.314Z" fill="#0C0C0C"/>
<path d="M261.863 293.054H263.709V283.204H261.863V293.054Z" fill="#0C0C0C"/>
<path d="M265.631 293.054H267.298V288.811C267.298 287.667 268.056 287.089 268.993 287.089C269.985 287.089 270.425 287.585 270.425 288.673V293.054H272.092V288.522C272.092 286.538 271.073 285.697 269.626 285.697C268.442 285.697 267.642 286.29 267.298 286.992V285.849H265.631V293.054Z" fill="#0C0C0C"/>
<path d="M276.215 293.192C278.061 293.192 279.094 292.352 279.094 290.891C279.094 289.362 278.089 288.949 276.394 288.687C275.251 288.494 274.906 288.287 274.906 287.764C274.906 287.254 275.333 286.91 276.05 286.91C276.821 286.91 277.193 287.213 277.331 287.874H278.874C278.695 286.248 277.524 285.697 276.05 285.697C274.7 285.697 273.349 286.414 273.349 287.86C273.349 289.21 274.052 289.748 275.953 290.051C277.014 290.23 277.496 290.45 277.496 291.043C277.496 291.649 277.097 291.966 276.201 291.966C275.223 291.966 274.851 291.539 274.768 290.809H273.198C273.267 292.338 274.355 293.192 276.215 293.192Z" fill="#0C0C0C"/>
<path d="M282.745 293.178C283.255 293.178 283.613 293.096 283.875 292.999V291.677C283.641 291.773 283.393 291.814 283.062 291.814C282.538 291.814 282.235 291.525 282.235 290.891V287.103H283.82V285.849H282.235V284.264H280.568V285.849H279.604V287.103H280.568V291.043C280.568 292.407 281.312 293.178 282.745 293.178Z" fill="#0C0C0C"/>
<path d="M287.069 293.192C288.171 293.192 288.805 292.793 289.273 292.173V293.054H290.913V288.329C290.913 286.359 289.645 285.697 288.033 285.697C286.422 285.697 285.085 286.4 284.947 288.081H286.559C286.642 287.364 287.069 286.951 287.937 286.951C288.915 286.951 289.246 287.433 289.246 288.398V288.77H288.35C286.284 288.77 284.658 289.376 284.658 291.057C284.658 292.558 285.746 293.192 287.069 293.192ZM287.469 291.993C286.642 291.993 286.311 291.594 286.311 290.988C286.311 290.106 287.124 289.817 288.392 289.817H289.246V290.533C289.246 291.456 288.488 291.993 287.469 291.993Z" fill="#0C0C0C"/>
<path d="M292.56 293.054H294.227V288.811C294.227 287.667 294.984 287.089 295.921 287.089C296.913 287.089 297.354 287.585 297.354 288.673V293.054H299.021V288.522C299.021 286.538 298.002 285.697 296.555 285.697C295.37 285.697 294.571 286.29 294.227 286.992V285.849H292.56V293.054Z" fill="#0C0C0C"/>
<path d="M303.13 293.178C303.64 293.178 303.998 293.096 304.26 292.999V291.677C304.025 291.773 303.777 291.814 303.447 291.814C302.923 291.814 302.62 291.525 302.62 290.891V287.103H304.204V285.849H302.62V284.264H300.953V285.849H299.989V287.103H300.953V291.043C300.953 292.407 301.697 293.178 303.13 293.178Z" fill="#0C0C0C"/>
<path d="M33.3828 293.054H34.5814V289.045H36.1796C38.0533 289.045 39.6239 288.232 39.6239 286.138V286.083C39.6239 284.03 38.067 283.204 36.1796 283.204H33.3828V293.054ZM34.5814 288.095V284.168H36.2622C37.5986 284.168 38.4253 284.692 38.4253 286.083V286.138C38.4253 287.406 37.6675 288.095 36.2622 288.095H34.5814Z" fill="#727272"/>
<path d="M43.043 293.178C44.1038 293.178 44.7513 292.82 45.2886 292.145V293.054H46.4321V288.301C46.4321 286.29 45.1784 285.725 43.8007 285.725C42.4092 285.725 41.1004 286.331 40.9488 287.971H42.0923C42.2026 287.089 42.7536 286.675 43.7456 286.675C44.8478 286.675 45.2886 287.158 45.2886 288.301V288.825H44.2554C42.4092 288.825 40.6457 289.39 40.6457 291.057C40.6457 292.531 41.7066 293.178 43.043 293.178ZM43.1532 292.269C42.1475 292.269 41.7892 291.801 41.7892 291.057C41.7892 289.996 42.8501 289.638 44.2967 289.638H45.2886V290.533C45.2886 291.649 44.3656 292.269 43.1532 292.269Z" fill="#727272"/>
<path d="M49.1241 295.562H50.2814L54.263 285.849H53.0919L51.0942 291.015L48.8899 285.849H47.6637L50.488 292.31L49.1241 295.562Z" fill="#727272"/>
<path d="M58.5704 292.228C57.11 292.228 56.2145 291.153 56.2145 289.514V289.403C56.2145 287.75 57.1238 286.675 58.5704 286.675C60.0032 286.675 60.9263 287.75 60.9263 289.417V289.514C60.9263 291.139 60.017 292.228 58.5704 292.228ZM58.5566 293.178C60.6094 293.178 62.1111 291.677 62.1111 289.5V289.39C62.1111 287.227 60.6094 285.725 58.5704 285.725C56.5313 285.725 55.0296 287.24 55.0296 289.403V289.514C55.0296 291.621 56.5038 293.178 58.5566 293.178Z" fill="#727272"/>
<path d="M66.3202 293.178C67.4775 293.178 68.2766 292.586 68.6072 291.911V293.054H69.7507V285.849H68.6072V290.216C68.6072 291.511 67.6428 292.186 66.6233 292.186C65.4936 292.186 64.9563 291.621 64.9563 290.354V285.849H63.8128V290.409C63.8128 292.393 64.8874 293.178 66.3202 293.178Z" fill="#727272"/>
<path d="M74.2524 293.151C74.7209 293.151 74.9964 293.082 75.2306 292.999V292.035C74.9826 292.131 74.7071 292.186 74.3489 292.186C73.7702 292.186 73.4534 291.842 73.4534 291.139V286.813H75.1342V285.849H73.4534V284.209H72.3098V285.849H71.2766V286.813H72.3098V291.249C72.3098 292.379 72.9436 293.151 74.2524 293.151Z" fill="#727272"/>
<path d="M81.8866 292.076V284.168H83.223C85.9371 284.168 87.0392 285.766 87.0392 288.039V288.15C87.0392 290.561 85.7717 292.076 83.2367 292.076H81.8866ZM80.688 293.054H83.2643C86.7086 293.054 88.2792 290.891 88.2792 288.163V288.039C88.2792 285.298 86.681 283.204 83.2919 283.204H80.688V293.054Z" fill="#727272"/>
<path d="M92.003 293.178C93.0638 293.178 93.7114 292.82 94.2487 292.145V293.054H95.3922V288.301C95.3922 286.29 94.1385 285.725 92.7607 285.725C91.3693 285.725 90.0604 286.331 89.9089 287.971H91.0524C91.1626 287.089 91.7137 286.675 92.7056 286.675C93.8078 286.675 94.2487 287.158 94.2487 288.301V288.825H93.2154C91.3693 288.825 89.6058 289.39 89.6058 291.057C89.6058 292.531 90.6666 293.178 92.003 293.178ZM92.1132 292.269C91.1075 292.269 90.7493 291.801 90.7493 291.057C90.7493 289.996 91.8101 289.638 93.2567 289.638H94.2487V290.533C94.2487 291.649 93.3256 292.269 92.1132 292.269Z" fill="#727272"/>
<path d="M99.829 293.151C100.297 293.151 100.573 293.082 100.807 292.999V292.035C100.559 292.131 100.284 292.186 99.9254 292.186C99.3468 292.186 99.0299 291.842 99.0299 291.139V286.813H100.711V285.849H99.0299V284.209H97.8864V285.849H96.8531V286.813H97.8864V291.249C97.8864 292.379 98.5201 293.151 99.829 293.151Z" fill="#727272"/>
<path d="M105.484 293.178C107.11 293.178 108.308 292.421 108.556 290.974H107.413C107.261 291.814 106.614 292.228 105.498 292.228C104.024 292.228 103.238 291.318 103.183 289.679H108.611V289.307C108.611 286.731 107.041 285.725 105.374 285.725C103.39 285.725 101.998 287.24 101.998 289.417V289.527C101.998 291.745 103.445 293.178 105.484 293.178ZM103.225 288.756C103.417 287.475 104.203 286.675 105.374 286.675C106.559 286.675 107.33 287.268 107.44 288.756H103.225Z" fill="#727272"/>
<g filter="url(#filter0_d)">
<path fill-rule="evenodd" clip-rule="evenodd" d="M32.082 463.485C32.082 459.111 35.6279 455.565 40.002 455.565H297.162C301.536 455.565 305.082 459.111 305.082 463.485V501.645C305.082 506.019 301.536 509.565 297.162 509.565H40.002C35.6279 509.565 32.082 506.019 32.082 501.645V463.485Z" fill="#0C0C0C"/>
</g>
<path d="M205.8 482.618L201.281 478.713C201.073 478.534 200.76 478.557 200.582 478.765C200.403 478.973 200.426 479.285 200.633 479.465L204.098 482.457L191.75 482.456C191.476 482.456 191.254 482.678 191.254 482.952C191.254 483.226 191.476 483.448 191.75 483.448H204.222L202.247 485.211L200.705 486.432C200.49 486.602 200.453 486.914 200.623 487.128C200.721 487.252 200.866 487.317 201.013 487.317C201.121 487.317 201.229 487.282 201.321 487.209L202.886 485.971L205.809 483.364C205.915 483.27 205.976 483.133 205.976 482.99C205.971 482.846 205.909 482.712 205.8 482.618L205.8 482.618Z" fill="white"/>
<path d="M132.324 487H133.603V482.724H135.307C137.306 482.724 138.981 481.857 138.981 479.623V479.564C138.981 477.374 137.321 476.493 135.307 476.493H132.324V487ZM133.603 481.71V477.521H135.396C136.821 477.521 137.703 478.08 137.703 479.564V479.623C137.703 480.975 136.895 481.71 135.396 481.71H133.603Z" fill="white"/>
<path d="M142.628 487.132C143.76 487.132 144.451 486.75 145.024 486.03V487H146.244V481.93C146.244 479.784 144.906 479.182 143.437 479.182C141.952 479.182 140.556 479.829 140.395 481.577H141.614C141.732 480.637 142.32 480.196 143.378 480.196C144.554 480.196 145.024 480.71 145.024 481.93V482.488H143.922C141.952 482.488 140.071 483.091 140.071 484.869C140.071 486.442 141.203 487.132 142.628 487.132ZM142.746 486.162C141.673 486.162 141.291 485.663 141.291 484.869C141.291 483.738 142.423 483.356 143.966 483.356H145.024V484.311C145.024 485.501 144.039 486.162 142.746 486.162Z" fill="white"/>
<path d="M149.115 489.675H150.349L154.596 479.314H153.347L151.216 484.825L148.865 479.314H147.557L150.57 486.206L149.115 489.675Z" fill="white"/>
<path d="M159.191 486.118C157.633 486.118 156.678 484.972 156.678 483.223V483.106C156.678 481.342 157.648 480.196 159.191 480.196C160.719 480.196 161.704 481.342 161.704 483.12V483.223C161.704 484.957 160.734 486.118 159.191 486.118ZM159.176 487.132C161.366 487.132 162.968 485.53 162.968 483.209V483.091C162.968 480.784 161.366 479.182 159.191 479.182C157.016 479.182 155.414 480.798 155.414 483.106V483.223C155.414 485.472 156.987 487.132 159.176 487.132Z" fill="white"/>
<path d="M167.457 487.132C168.692 487.132 169.544 486.5 169.897 485.78V487H171.117V479.314H169.897V483.973C169.897 485.354 168.868 486.074 167.781 486.074C166.576 486.074 166.003 485.472 166.003 484.12V479.314H164.783V484.178C164.783 486.295 165.929 487.132 167.457 487.132Z" fill="white"/>
<path d="M175.918 487.103C176.418 487.103 176.712 487.029 176.962 486.941V485.913C176.697 486.015 176.403 486.074 176.021 486.074C175.404 486.074 175.066 485.707 175.066 484.957V480.343H176.859V479.314H175.066V477.565H173.846V479.314H172.744V480.343H173.846V485.075C173.846 486.28 174.522 487.103 175.918 487.103Z" fill="white"/>
<path d="M217.718 375.795H219.256V372.902C222.631 372.672 224.629 370.537 224.629 367.85C224.629 364.751 222.654 363.602 219.256 363.051V358.344C220.657 358.574 221.368 359.377 221.621 360.778H224.331C224.055 357.931 222.218 356.392 219.256 356.117V354.027H217.718V356.094C214.595 356.301 212.551 358.206 212.551 360.755C212.551 363.671 214.319 364.911 217.718 365.485V370.652C215.536 370.376 215.031 369.113 214.847 367.621H212C212.23 370.399 213.791 372.627 217.718 372.902V375.795ZM221.805 368.126C221.805 369.481 220.794 370.445 219.256 370.652V365.738C221.254 366.174 221.805 366.817 221.805 368.126ZM215.261 360.503C215.261 359.355 216.133 358.459 217.718 358.275V362.799C215.697 362.385 215.261 361.697 215.261 360.503Z" fill="#0C0C0C"/>
<path d="M233.88 372.695H236.842V369.366H239.046V367.093H236.842V356.278H233.007L225.752 368.287V369.366H233.88V372.695ZM229.012 367.093L233.926 358.597V367.093H229.012Z" fill="#0C0C0C"/>
<path d="M246.156 372.925C249.922 372.925 252.31 371.042 252.31 368.011C252.31 365.83 251.047 364.475 249.141 364.039C250.725 363.442 251.805 362.317 251.805 360.457C251.805 358.023 249.807 356.048 246.386 356.048C242.872 356.048 240.737 358.229 240.576 361.077H243.286C243.47 359.423 244.595 358.367 246.34 358.367C248.039 358.367 248.889 359.355 248.889 360.686C248.889 362.225 248.039 363.097 246.156 363.097H244.985V365.279H246.248C248.246 365.279 249.21 366.174 249.21 367.965C249.21 369.596 248.223 370.629 246.087 370.629C243.883 370.629 242.918 369.343 242.758 367.621H239.979C240.117 370.767 242.253 372.925 246.156 372.925Z" fill="#0C0C0C"/>
<path d="M259.776 372.925C263.542 372.925 265.93 371.042 265.93 368.011C265.93 365.83 264.667 364.475 262.761 364.039C264.346 363.442 265.425 362.317 265.425 360.457C265.425 358.023 263.427 356.048 260.006 356.048C256.493 356.048 254.357 358.229 254.196 361.077H256.906C257.09 359.423 258.215 358.367 259.96 358.367C261.659 358.367 262.509 359.355 262.509 360.686C262.509 362.225 261.659 363.097 259.776 363.097H258.605V365.279H259.868C261.866 365.279 262.83 366.174 262.83 367.965C262.83 369.596 261.843 370.629 259.707 370.629C257.503 370.629 256.539 369.343 256.378 367.621H253.599C253.737 370.767 255.873 372.925 259.776 372.925Z" fill="#0C0C0C"/>
<path d="M268.445 375.52L271.453 370.376L268.812 369.32L266.723 374.762L268.445 375.52Z" fill="#0C0C0C"/>
<path d="M278.556 372.925C282.092 372.925 284.595 370.744 284.595 367.276C284.595 363.832 282.505 361.766 279.543 361.766C277.798 361.766 276.65 362.408 276.007 363.143L276.03 358.689H283.653V356.278H273.688L273.55 365.416H275.112C275.846 364.567 276.857 363.993 278.533 363.993C280.347 363.993 281.495 365.256 281.495 367.23C281.495 369.251 280.416 370.56 278.533 370.56C276.42 370.56 275.8 369.504 275.548 367.988H272.701C272.884 370.813 274.698 372.925 278.556 372.925Z" fill="#0C0C0C"/>
<path d="M287.494 372.695H290.639L296.61 356.645V356.278H285.129V358.758H292.775L287.494 372.695Z" fill="#0C0C0C"/>
<path d="M300.491 372.695H303.568V356.278H300.835L297.024 358.987V361.674L300.491 359.309V372.695Z" fill="#0C0C0C"/>
<path d="M36.0638 371.288H37.5021V360.641H40.9409V359.467H32.625V360.641H36.0638V371.288Z" fill="#0C0C0C"/>
<path d="M45.1625 370.296C43.4101 370.296 42.3354 369.006 42.3354 367.039V366.907C42.3354 364.923 43.4266 363.633 45.1625 363.633C46.8819 363.633 47.9896 364.923 47.9896 366.923V367.039C47.9896 368.99 46.8984 370.296 45.1625 370.296ZM45.146 371.437C47.6093 371.437 49.4114 369.635 49.4114 367.023V366.89C49.4114 364.295 47.6093 362.493 45.1625 362.493C42.7157 362.493 40.9136 364.311 40.9136 366.907V367.039C40.9136 369.569 42.6826 371.437 45.146 371.437Z" fill="#0C0C0C"/>
<path d="M54.1648 371.404C54.7269 371.404 55.0575 371.321 55.3386 371.222V370.065C55.041 370.18 54.7103 370.246 54.2805 370.246C53.5861 370.246 53.2059 369.833 53.2059 368.99V363.799H55.2229V362.641H53.2059V360.674H51.8337V362.641H50.5937V363.799H51.8337V369.122C51.8337 370.478 52.5942 371.404 54.1648 371.404Z" fill="#0C0C0C"/>
<path d="M59.6594 371.437C60.9324 371.437 61.7094 371.007 62.3542 370.197V371.288H63.7264V365.584C63.7264 363.17 62.222 362.493 60.5687 362.493C58.8989 362.493 57.3283 363.22 57.1464 365.187H58.5187C58.6509 364.129 59.3122 363.633 60.5026 363.633C61.8252 363.633 62.3542 364.212 62.3542 365.584V366.212H61.1143C58.8989 366.212 56.7827 366.89 56.7827 368.891C56.7827 370.66 58.0557 371.437 59.6594 371.437ZM59.7917 370.346C58.5848 370.346 58.1549 369.784 58.1549 368.891C58.1549 367.618 59.4279 367.188 61.1639 367.188H62.3542V368.263C62.3542 369.602 61.2465 370.346 59.7917 370.346Z" fill="#0C0C0C"/>
<path d="M66.4549 371.288H67.8437V358.508H66.4549V371.288Z" fill="#0C0C0C"/>
<path d="M75.1264 371.288H76.5647V366.477H78.4825C80.731 366.477 82.6157 365.502 82.6157 362.989V362.923C82.6157 360.459 80.7475 359.467 78.4825 359.467H75.1264V371.288ZM76.5647 365.336V360.624H78.5817C80.1854 360.624 81.1773 361.253 81.1773 362.923V362.989C81.1773 364.51 80.268 365.336 78.5817 365.336H76.5647Z" fill="#0C0C0C"/>
<path d="M86.7186 371.437C87.9916 371.437 88.7686 371.007 89.4134 370.197V371.288H90.7856V365.584C90.7856 363.17 89.2812 362.493 87.6279 362.493C85.9581 362.493 84.3875 363.22 84.2056 365.187H85.5779C85.7101 364.129 86.3714 363.633 87.5618 363.633C88.8844 363.633 89.4134 364.212 89.4134 365.584V366.212H88.1735C85.9581 366.212 83.8419 366.89 83.8419 368.891C83.8419 370.66 85.1149 371.437 86.7186 371.437ZM86.8509 370.346C85.644 370.346 85.2141 369.784 85.2141 368.891C85.2141 367.618 86.4871 367.188 88.2231 367.188H89.4134V368.263C89.4134 369.602 88.3057 370.346 86.8509 370.346Z" fill="#0C0C0C"/>
<path d="M94.0159 374.297H95.4047L100.183 362.641H98.7773L96.3801 368.841L93.7349 362.641H92.2635L95.6527 370.395L94.0159 374.297Z" fill="#0C0C0C"/>
<path d="M105.351 370.296C103.599 370.296 102.524 369.006 102.524 367.039V366.907C102.524 364.923 103.616 363.633 105.351 363.633C107.071 363.633 108.179 364.923 108.179 366.923V367.039C108.179 368.99 107.087 370.296 105.351 370.296ZM105.335 371.437C107.798 371.437 109.6 369.635 109.6 367.023V366.89C109.6 364.295 107.798 362.493 105.351 362.493C102.905 362.493 101.103 364.311 101.103 366.907V367.039C101.103 369.569 102.872 371.437 105.335 371.437Z" fill="#0C0C0C"/>
<path d="M114.651 371.437C116.04 371.437 116.999 370.726 117.396 369.916V371.288H118.768V362.641H117.396V367.882C117.396 369.436 116.238 370.246 115.015 370.246C113.659 370.246 113.015 369.569 113.015 368.048V362.641H111.642V368.114C111.642 370.494 112.932 371.437 114.651 371.437Z" fill="#0C0C0C"/>
<path d="M124.17 371.404C124.732 371.404 125.063 371.321 125.344 371.222V370.065C125.046 370.18 124.716 370.246 124.286 370.246C123.591 370.246 123.211 369.833 123.211 368.99V363.799H125.228V362.641H123.211V360.674H121.839V362.641H120.599V363.799H121.839V369.122C121.839 370.478 122.599 371.404 124.17 371.404Z" fill="#0C0C0C"/>
<path d="M0.77279 427.092H336.323" stroke="#EDEDED" stroke-width="0.918477" stroke-linecap="square"/>
<path d="M0.472656 326.06H336.623" stroke="#EDEDED" stroke-width="0.918477" stroke-linecap="square"/>
<rect x="27.5547" y="47.761" width="66.1304" height="0.918477" fill="#0C0C0C"/>
<path d="M252.441 287.755H248.634L250.145 281.972L242.797 290.886H246.603L245.093 296.668L252.441 287.755Z" fill="#03C3FF"/>
</g>
<defs>
<filter id="filter0_d" x="25.8134" y="451.225" width="285.537" height="66.5372" filterUnits="userSpaceOnUse" color-interpolation-filters="sRGB">
<feFlood flood-opacity="0" result="BackgroundImageFix"/>
<feColorMatrix in="SourceAlpha" type="matrix" values="0 0 0 0 0 0 0 0 0 0 0 0 0 0 0 0 0 0 127 0"/>
<feOffset dy="1.9288"/>
<feGaussianBlur stdDeviation="3.1343"/>
<feColorMatrix type="matrix" values="0 0 0 0 0.416667 0 0 0 0 0.416667 0 0 0 0 0.416667 0 0 0 0.172094 0"/>
<feBlend mode="normal" in2="BackgroundImageFix" result="effect1_dropShadow"/>
<feBlend mode="normal" in="SourceGraphic" in2="effect1_dropShadow" result="shape"/>
</filter>
<clipPath id="clip0">
<rect width="337.08" height="540.06" fill="white"/>
</clipPath>
</defs>
</svg>
