<svg width="338" height="541" viewBox="0 0 338 541" fill="none" xmlns="http://www.w3.org/2000/svg">
<g clip-path="url(#clip0)">
<path fill-rule="evenodd" clip-rule="evenodd" d="M0 7.90015C0 3.55007 3.55032 0 7.9007 0H329.179C333.53 0 337.08 3.55007 337.08 7.90015V532.16C337.08 536.56 333.53 540.06 329.179 540.06H7.9007C3.50031 540.06 0 536.51 0 532.16V7.90015Z" fill="#292A33"/>
<path d="M2 48.2007H335.53" stroke="#1C1D22" stroke-width="1.84" stroke-linecap="square"/>
<path d="M134.563 34.0506C136.413 34.0506 137.763 32.9006 137.763 31.3506C137.763 29.6005 136.663 29.0005 134.663 28.7005C132.763 28.4005 132.463 27.9505 132.463 27.0505C132.463 26.1505 133.113 25.5505 134.363 25.5505C135.613 25.5505 136.313 26.0505 136.513 27.2005H137.513C137.313 25.5505 136.163 24.6505 134.363 24.6505C132.613 24.6505 131.413 25.7505 131.413 27.1505C131.413 28.8005 132.563 29.4005 134.513 29.7005C136.263 30.0006 136.713 30.4006 136.713 31.4506C136.713 32.5006 135.813 33.2006 134.613 33.2006C132.763 33.2006 132.313 32.3006 132.163 31.2006H131.062C131.213 32.7006 132.113 34.0506 134.563 34.0506ZM142.363 34.0506C143.864 34.1006 145.164 33.0006 145.314 31.5006H144.314C144.214 32.5006 143.364 33.2006 142.363 33.1506C141.063 33.1506 140.163 32.2506 140.163 30.6506V30.5506C140.163 28.9505 141.113 28.0005 142.314 28.0005C143.214 28.0005 144.014 28.4005 144.164 29.4505H145.214C145.014 27.7505 143.714 27.1005 142.314 27.1005C140.513 27.1005 139.063 28.5505 139.063 30.3506C139.063 30.4006 139.063 30.4506 139.063 30.5006V30.6006C139.063 32.7506 140.463 34.0506 142.363 34.0506ZM146.914 33.9506H147.964V29.8505C147.914 28.8505 148.664 28.0505 149.664 28.0005C149.714 28.0005 149.764 28.0005 149.864 28.0005C150.964 28.0005 151.464 28.5005 151.464 29.7005V33.9006H152.514V29.7505C152.514 27.8005 151.514 27.0505 150.164 27.0505C149.264 27.0005 148.414 27.4505 148.014 28.2505V23.9504H146.964L146.914 33.9506ZM157.315 34.0506C158.815 34.0506 159.965 33.3506 160.165 32.0006H159.115C158.965 32.8006 158.365 33.1506 157.315 33.1506C155.915 33.1506 155.215 32.3006 155.165 30.7506H160.215V30.4006C160.215 28.0005 158.765 27.0505 157.215 27.0505C155.365 27.0505 154.065 28.4505 154.065 30.5006V30.6006C154.065 32.7506 155.415 34.0506 157.315 34.0506ZM155.215 29.9505C155.415 28.7505 156.115 28.0005 157.215 28.0005C158.315 28.0005 159.065 28.5505 159.115 29.9505H155.215ZM164.415 34.0506C165.366 34.0506 166.216 33.5506 166.716 32.8006V33.9506H167.766V24.0004H166.716V28.3005C166.266 27.5005 165.416 27.0505 164.515 27.1005C162.665 27.1005 161.365 28.5505 161.365 30.6006V30.7006C161.365 32.8006 162.665 34.0506 164.415 34.0506ZM164.565 33.2006C163.415 33.2006 162.515 32.4006 162.515 30.7006V30.6006C162.515 28.9505 163.315 28.0005 164.665 28.0005C166.016 28.0005 166.816 28.8005 166.816 30.5506V30.6506C166.766 32.3506 165.816 33.2006 164.565 33.2006ZM172.216 34.0506C173.116 34.1006 173.916 33.6506 174.366 32.8506V33.9006H175.416V27.2505H174.366V31.3506C174.416 32.3506 173.666 33.1506 172.666 33.2006C172.616 33.2006 172.566 33.2006 172.516 33.2006C171.466 33.2006 170.966 32.7006 170.966 31.5006V27.3005H169.916V31.5506C169.866 33.3506 170.916 34.0506 172.216 34.0506ZM177.617 33.9506H178.717V24.0004H177.617V33.9506ZM183.617 34.0506C185.117 34.0506 186.267 33.3506 186.467 32.0006H185.417C185.267 32.8006 184.667 33.1506 183.617 33.1506C182.217 33.1506 181.517 32.3006 181.467 30.7506H186.517V30.4006C186.517 28.0005 185.067 27.0505 183.517 27.0505C181.667 27.0505 180.367 28.4505 180.367 30.5006V30.6006C180.367 32.7506 181.717 34.0506 183.617 34.0506ZM181.517 29.9505C181.717 28.7505 182.417 28.0005 183.517 28.0005C184.617 28.0005 185.367 28.5505 185.417 29.9505H181.517Z" fill="#B2B2B2"/>
<path d="M35.4035 34.1006C37.4536 34.1006 38.8038 32.8506 38.8038 31.2506C38.8038 29.4005 37.7037 28.8005 35.5035 28.5005C33.9033 28.2505 33.6033 27.9005 33.6033 27.1505C33.6033 26.4005 34.1533 25.9505 35.2034 25.9505C36.2535 25.9505 36.8036 26.3505 37.0036 27.3505H38.5537C38.3537 25.6005 37.2036 24.7004 35.2034 24.7004C33.2033 24.7004 32.0032 25.8505 32.0032 27.3505C32.0032 29.1005 33.0532 29.7505 35.2534 30.0505C36.7536 30.3005 37.1536 30.6005 37.1536 31.4506C37.1536 32.3006 36.4535 32.8506 35.4035 32.8506C33.8533 32.8506 33.4533 32.1006 33.3533 31.1506H31.7031C31.8531 32.8506 32.9032 34.1006 35.4035 34.1006ZM42.5041 34.1006C43.4042 34.1506 44.2042 33.7006 44.6543 32.9006V33.9506H46.2044V27.2505H44.6543V31.2506C44.7043 32.1006 44.1042 32.8006 43.2542 32.8506C43.2042 32.8506 43.1541 32.8506 43.0541 32.8506C42.1541 32.8506 41.704 32.4006 41.704 31.3506V27.2005H40.1539V31.5006C40.1539 33.3006 41.154 34.1006 42.5041 34.1006ZM48.0046 33.9506H49.5547V29.9505C49.5047 29.1505 50.1048 28.4505 50.8548 28.4005C50.9048 28.4005 50.9548 28.4005 51.0548 28.4005C51.8049 28.4005 52.255 28.8005 52.255 29.8005V33.9506H53.8051V29.9505C53.7551 29.1505 54.3551 28.4505 55.1052 28.4005C55.1552 28.4005 55.2052 28.4005 55.3052 28.4005C56.0553 28.4005 56.5053 28.8005 56.5053 29.8005V33.9506H58.0555V29.7005C58.0555 27.8505 57.0554 27.1005 55.8053 27.1005C54.9052 27.1005 54.0051 27.5505 53.5051 28.3005C53.205 27.5005 52.455 27.0505 51.6049 27.1005C50.7548 27.0505 49.9547 27.5505 49.5547 28.2505V27.2005H48.0046V33.9506ZM59.8556 33.9506H61.4058V29.9505C61.3558 29.1505 61.9558 28.4505 62.7059 28.4005C62.7559 28.4005 62.8059 28.4005 62.9059 28.4005C63.656 28.4005 64.106 28.8005 64.106 29.8005V33.9506H65.6561V29.9505C65.6061 29.1505 66.2062 28.4505 66.9563 28.4005C67.0063 28.4005 67.0563 28.4005 67.1563 28.4005C67.9063 28.4005 68.3564 28.8005 68.3564 29.8005V33.9506H69.9065V29.7005C69.9065 27.8505 68.9064 27.1005 67.6563 27.1005C66.7562 27.1005 65.8562 27.5505 65.3561 28.3005C65.0561 27.5005 64.306 27.0505 63.456 27.1005C62.6059 27.0505 61.8058 27.5505 61.4058 28.2505V27.2005H59.8556V33.9506ZM73.4068 34.1006C74.2069 34.1506 75.007 33.8006 75.457 33.1506V34.0006H77.0072V29.6005C77.0072 27.7505 75.807 27.1505 74.3069 27.1505C72.8068 27.1505 71.5567 27.8005 71.4067 29.4005H72.9068C72.9568 28.8005 73.4568 28.3005 74.0569 28.3505C74.1069 28.3505 74.1569 28.3505 74.1569 28.3505C75.057 28.3505 75.357 28.8005 75.357 29.7005V30.0505H74.5069C72.5568 30.0505 71.0566 30.6005 71.0566 32.2006C71.1566 33.5006 72.1567 34.1006 73.4068 34.1006ZM73.7569 32.9506C73.0068 32.9506 72.6568 32.5506 72.6568 32.0006C72.6568 31.2006 73.4068 30.9006 74.6069 30.9006H75.407V31.5506C75.457 32.4506 74.707 32.9506 73.7569 32.9506ZM78.7573 33.9506H80.3075V30.4505C80.3075 29.0005 81.1575 28.6005 82.5077 28.5505V27.1505C81.5576 27.1005 80.7075 27.6505 80.3075 28.5005V27.2505H78.7573V33.9506ZM84.7078 36.2507H86.258L89.9083 27.2505H88.4082L86.758 31.6006L84.9579 27.2505H83.2577L85.9079 33.3006L84.7078 36.2507Z" fill="white"/>
<path d="M248.77 185.603H249.57V183.853C251.37 183.753 252.62 182.503 252.62 180.953C252.62 179.153 251.57 178.553 249.57 178.153V174.703C250.52 174.753 251.27 175.503 251.37 176.453H252.47C252.27 174.853 251.27 173.903 249.62 173.753V172.503H248.82V173.753C247.12 173.853 245.92 175.003 245.92 176.403C245.92 178.053 247.02 178.703 248.82 179.053V182.903C247.12 182.753 246.82 181.803 246.67 180.753H245.52C245.67 182.353 246.47 183.703 248.82 183.853L248.77 185.603ZM251.52 181.053C251.52 182.053 250.67 182.803 249.62 182.903V179.203C251.12 179.553 251.52 180.053 251.52 181.053ZM246.97 176.353C246.97 175.503 247.62 174.853 248.77 174.753V178.053C247.27 177.753 246.97 177.203 246.97 176.353ZM258.571 183.753H259.721V181.653H261.071V180.653H259.721V173.853H258.121L253.62 181.253V181.653H258.571V183.753ZM255.17 180.703L258.571 174.803V180.703H255.17ZM265.321 183.853C267.371 183.853 268.822 182.803 268.822 181.003C268.922 179.803 268.072 178.753 266.921 178.503C267.872 178.203 268.472 177.353 268.472 176.353C268.472 175.003 267.371 173.753 265.521 173.753C263.671 173.753 262.371 175.053 262.321 176.603H263.371C263.471 175.503 264.421 174.653 265.521 174.753C266.721 174.753 267.321 175.453 267.321 176.403C267.321 177.503 266.771 178.103 265.471 178.103H264.771V179.103H265.521C266.921 179.103 267.622 179.753 267.622 181.003C267.622 182.153 266.921 182.903 265.371 182.903C263.821 182.903 263.121 182.003 263.021 180.853H261.921C261.971 182.553 263.271 183.853 265.321 183.853ZM273.322 183.853C275.372 183.853 276.822 182.803 276.822 181.003C276.922 179.803 276.072 178.753 274.922 178.503C275.872 178.203 276.472 177.353 276.472 176.353C276.472 175.003 275.372 173.753 273.522 173.753C271.672 173.753 270.372 175.053 270.322 176.603H271.372C271.472 175.503 272.422 174.653 273.572 174.753C274.772 174.753 275.372 175.453 275.372 176.403C275.372 177.503 274.822 178.103 273.522 178.103H272.822V179.103H273.572C274.972 179.103 275.672 179.753 275.672 181.003C275.672 182.153 274.972 182.903 273.422 182.903C271.872 182.903 271.172 182.003 271.072 180.853H269.972C269.972 182.553 271.222 183.853 273.322 183.853ZM278.322 185.453L280.023 182.553L278.923 182.053L277.622 185.053L278.322 185.453ZM284.373 183.853C286.123 183.953 287.673 182.603 287.723 180.803C287.723 180.703 287.723 180.603 287.723 180.503C287.723 178.503 286.423 177.253 284.673 177.253C283.923 177.203 283.223 177.453 282.673 177.903V174.903H287.223V173.853H281.723V179.153H282.173C282.773 178.503 283.623 178.153 284.523 178.203C285.773 178.203 286.573 179.103 286.573 180.503C286.573 182.003 285.723 182.903 284.423 182.903C282.923 182.903 282.523 182.153 282.323 181.103H281.173C281.273 182.703 282.273 183.853 284.373 183.853ZM289.873 183.753H291.074L294.774 174.053V173.903H288.273V174.853H293.274L289.873 183.753ZM297.524 183.753H298.724V173.903H297.624L295.324 175.553V176.653L297.524 175.053V183.753Z" fill="white"/>
<path d="M250.271 141.503H251.421V139.452H252.771V138.452H251.421V131.652H249.821L245.32 139.052V139.452H250.271V141.503ZM246.87 138.452L250.271 132.552V138.452H246.87ZM254.771 141.503H255.971L259.672 131.802V131.652H253.171V132.602H258.171L254.771 141.503Z" fill="white"/>
<path d="M247.573 226.204H248.723C245.773 222.504 245.773 217.204 248.723 213.504H247.573C244.523 217.204 244.523 222.504 247.573 226.204ZM252.623 226.004H253.473V224.254C255.274 224.154 256.524 222.954 256.524 221.354C256.524 219.554 255.474 218.954 253.473 218.554V215.154C254.423 215.204 255.174 215.954 255.274 216.904H256.374C256.174 215.304 255.174 214.354 253.523 214.204V212.954H252.723V214.204C251.023 214.304 249.823 215.404 249.823 216.854C249.823 218.504 250.923 219.154 252.723 219.504V223.354C251.023 223.204 250.723 222.254 250.573 221.204H249.423C249.573 222.804 250.373 224.154 252.723 224.304L252.623 226.004ZM255.374 221.454C255.374 222.454 254.523 223.204 253.423 223.354V219.654C254.974 219.954 255.374 220.454 255.374 221.454ZM250.823 216.754C250.823 215.904 251.473 215.254 252.623 215.154V218.504C251.123 218.154 250.823 217.604 250.823 216.754ZM261.824 223.304C260.174 223.304 259.124 222.004 259.124 219.504V218.954C259.124 216.554 260.124 215.154 261.774 215.154C263.424 215.154 264.424 216.654 264.424 218.954V219.504C264.424 221.954 263.574 223.304 261.824 223.304ZM261.824 224.304C264.224 224.304 265.624 222.354 265.624 219.504V218.954C265.624 216.154 264.224 214.204 261.774 214.204C259.324 214.204 257.874 216.104 257.874 219.004V219.554C257.924 222.404 259.474 224.304 261.824 224.304ZM266.475 226.154H267.625C270.675 222.454 270.675 217.154 267.625 213.454H266.475C269.425 217.204 269.425 222.454 266.475 226.154Z" fill="white"/>
<path d="M32.0039 183.754H33.204V179.753H34.8042C36.7043 179.753 38.2545 178.953 38.2545 176.853V176.803C38.2545 174.753 36.7043 173.903 34.8042 173.903H32.0039V183.754ZM33.204 178.803V174.853H34.9042C36.2543 174.853 37.0544 175.353 37.0544 176.753V176.803C37.0544 178.053 36.3043 178.753 34.9042 178.753H33.204V178.803ZM41.6548 183.854C42.5048 183.904 43.3549 183.503 43.905 182.803V183.704H45.0551V178.953C45.0551 176.953 43.8049 176.353 42.4048 176.353C41.0047 176.353 39.7046 176.953 39.5546 178.603H40.7047C40.8047 177.703 41.3547 177.303 42.3548 177.303C43.4549 177.303 43.905 177.803 43.905 178.903V179.403H42.8549C41.0047 179.403 39.2546 179.953 39.2546 181.653C39.2546 183.203 40.3546 183.854 41.6548 183.854ZM41.8048 182.953C40.8047 182.953 40.4547 182.503 40.4547 181.753C40.4547 180.703 41.5047 180.353 42.9549 180.353H43.955V181.253C43.905 182.353 43.0049 182.953 41.8048 182.953ZM47.7553 186.254H48.9054L52.9058 176.553H51.7557L49.7555 181.703L47.5553 176.553H46.3552L49.2054 183.003L47.7553 186.254ZM57.2061 182.903C55.756 182.903 54.8559 181.803 54.8559 180.203V180.103C54.8559 178.453 55.756 177.403 57.2061 177.403C58.6563 177.403 59.5564 178.503 59.5564 180.153V180.253C59.5564 181.853 58.6563 182.903 57.2061 182.903ZM57.2061 183.854C59.2563 183.854 60.7565 182.353 60.7565 180.203V180.103C60.8565 178.203 59.4063 176.553 57.5062 176.453C57.4062 176.453 57.3062 176.453 57.2562 176.453C55.206 176.453 53.7058 177.953 53.7058 180.103V180.203C53.6058 182.153 55.106 183.753 57.0561 183.854C57.0561 183.854 57.1061 183.854 57.2061 183.854ZM64.9568 183.854C65.9069 183.904 66.807 183.403 67.257 182.603V183.754H68.4071V176.553H67.257V180.903C67.307 181.953 66.507 182.853 65.4569 182.853C65.4069 182.853 65.3569 182.853 65.2569 182.853C64.1068 182.853 63.6067 182.303 63.6067 181.003V176.503H62.5066V181.053C62.4566 183.103 63.5067 183.854 64.9568 183.854ZM72.9075 183.854C73.2576 183.854 73.6076 183.804 73.9076 183.704V182.753C73.6076 182.853 73.3076 182.903 73.0076 182.903C72.4075 182.903 72.1075 182.553 72.1075 181.853V177.503H73.8076V176.553H72.1075V174.903H70.9574V176.553H69.9073V177.503H70.9574V181.953C70.9574 183.053 71.5574 183.854 72.9075 183.854Z" fill="white"/>
<path d="M35.755 141.603C37.7052 141.603 39.1553 140.353 39.1553 138.703C39.1553 136.853 38.0052 136.203 35.805 135.853C33.8048 135.553 33.4548 135.053 33.4548 134.103C33.4548 133.153 34.1549 132.503 35.505 132.503C36.8551 132.503 37.6052 133.003 37.8052 134.253H38.9053C38.7053 132.503 37.5052 131.553 35.505 131.553C33.6548 131.553 32.3547 132.703 32.3547 134.203C32.3547 135.953 33.5548 136.603 35.655 136.903C37.5552 137.203 38.0552 137.653 38.0552 138.803C38.0552 139.953 37.0551 140.653 35.805 140.653C33.8048 140.653 33.3548 139.653 33.2048 138.503H32.0547C32.2047 140.153 33.1548 141.603 35.755 141.603ZM44.1058 141.603C45.7059 141.603 46.956 140.853 47.156 139.403H46.0059C45.8559 140.253 45.2059 140.653 44.1058 140.653C42.6056 140.653 41.8556 139.753 41.8056 138.103H47.206V137.703C47.206 135.103 45.6559 134.103 43.9557 134.103C41.9556 134.103 40.5554 135.603 40.5554 137.803V137.903C40.6054 140.203 42.0556 141.603 44.1058 141.603ZM41.8556 137.203C42.0556 135.903 42.8557 135.103 44.0058 135.103C45.1559 135.103 45.9559 135.703 46.0559 137.203H41.8556ZM49.0062 141.503H50.1563V130.853H49.0062V141.503ZM55.4568 141.603C57.0569 141.603 58.307 140.853 58.507 139.403H57.3569C57.2069 140.253 56.5569 140.653 55.4568 140.653C53.9566 140.653 53.2066 139.753 53.1566 138.103H58.557V137.703C58.557 135.103 57.0069 134.103 55.3068 134.103C53.3066 134.103 51.9065 135.603 51.9065 137.803V137.903C51.9565 140.203 53.4066 141.603 55.4568 141.603ZM53.2066 137.203C53.4066 135.903 54.2067 135.103 55.3568 135.103C56.5069 135.103 57.3069 135.703 57.4069 137.203H53.2066ZM63.3075 141.603C64.9076 141.703 66.3077 140.503 66.4577 138.903H65.4076C65.3076 139.953 64.4076 140.753 63.3575 140.653C61.9573 140.653 61.0073 139.703 61.0073 137.953V137.853C61.0073 136.153 62.0074 135.103 63.3075 135.103C64.3076 135.103 65.1076 135.503 65.3076 136.653H66.4577C66.2577 134.803 64.8576 134.153 63.3575 134.153C61.4073 134.153 59.8572 135.703 59.8572 137.653C59.8572 137.703 59.8572 137.803 59.8572 137.853V137.953C59.8072 140.203 61.3073 141.603 63.3075 141.603ZM70.3581 141.603C70.7081 141.603 71.0582 141.553 71.3582 141.453V140.503C71.0582 140.603 70.7581 140.653 70.4581 140.653C69.8581 140.653 69.558 140.303 69.558 139.603V135.253H71.2582V134.303H69.558V132.653H68.4079V134.303H67.3578V135.253H68.4079V139.703C68.4579 140.803 69.058 141.603 70.3581 141.603ZM76.0586 141.603C77.6587 141.603 78.9089 140.853 79.1089 139.403H77.9588C77.8088 140.253 77.1587 140.653 76.0586 140.653C74.5585 140.653 73.8084 139.753 73.7584 138.103H79.2089V137.703C79.2089 135.103 77.6087 134.103 75.9586 134.103C73.9584 134.103 72.5583 135.603 72.5583 137.803V137.903C72.5583 140.203 74.0084 141.603 76.0586 141.603ZM73.7584 137.203C73.9584 135.903 74.7585 135.103 75.9086 135.103C77.0587 135.103 77.8588 135.703 77.9588 137.203H73.7584ZM83.6093 141.603C84.6094 141.603 85.5094 141.053 86.0595 140.253V141.503H87.2096V130.853H86.0595V135.453C85.5594 134.603 84.6594 134.103 83.7093 134.153C81.7091 134.153 80.359 135.703 80.359 137.903V138.003C80.359 140.303 81.7591 141.603 83.6093 141.603ZM83.7593 140.653C82.5592 140.653 81.5591 139.803 81.5591 137.953V137.853C81.5591 136.103 82.4092 135.103 83.8593 135.103C85.3094 135.103 86.1595 135.953 86.1595 137.803V137.903C86.1595 139.803 85.1094 140.653 83.7593 140.653ZM96.4604 141.603C98.4106 141.603 99.8607 140.353 99.8607 138.703C99.8607 136.853 98.7106 136.203 96.5104 135.853C94.5102 135.553 94.1602 135.053 94.1602 134.103C94.1602 133.153 94.8603 132.503 96.2104 132.503C97.5605 132.503 98.3106 133.003 98.5106 134.253H99.6107C99.4107 132.503 98.2106 131.553 96.2104 131.553C94.3602 131.553 93.0601 132.703 93.0601 134.203C93.0601 135.953 94.2602 136.603 96.3604 136.903C98.2106 137.203 98.7606 137.653 98.7606 138.803C98.7606 139.953 97.7605 140.653 96.5104 140.653C94.5102 140.653 94.0602 139.653 93.9102 138.503H92.7101C92.9101 140.153 93.8602 141.603 96.4604 141.603ZM104.211 141.603C105.161 141.653 106.061 141.153 106.511 140.353V141.503H107.661V134.303H106.511V138.653C106.561 139.703 105.761 140.603 104.711 140.603C104.661 140.603 104.611 140.603 104.511 140.603C103.361 140.603 102.861 140.053 102.861 138.753V134.253H101.711V138.803C101.711 140.853 102.761 141.603 104.211 141.603ZM113.562 141.603C115.562 141.603 116.862 140.103 116.862 137.903V137.803C116.862 135.553 115.462 134.203 113.562 134.203C112.562 134.203 111.662 134.703 111.112 135.553V130.903H109.962V141.553H111.112V140.353C111.612 141.153 112.562 141.653 113.562 141.603ZM113.412 140.653C112.012 140.653 111.062 139.803 111.062 137.953V137.853C111.062 136.003 112.062 135.153 113.412 135.153C114.612 135.153 115.612 136.053 115.612 137.853V137.953C115.612 139.703 114.862 140.653 113.412 140.653ZM120.813 141.603C122.563 141.603 123.463 140.703 123.463 139.403C123.463 137.903 122.413 137.553 120.913 137.253C119.612 137.003 119.212 136.753 119.212 136.103C119.212 135.453 119.762 135.053 120.563 135.053C121.463 135.053 121.913 135.403 122.063 136.203H123.163C122.963 134.653 121.863 134.103 120.563 134.103C119.412 134.103 118.112 134.803 118.112 136.103C118.112 137.353 118.762 137.903 120.613 138.203C121.713 138.403 122.313 138.653 122.313 139.403C122.313 140.153 121.813 140.553 120.713 140.553C119.612 140.553 119.112 140.003 119.012 139.153H117.912C118.062 140.753 119.112 141.603 120.813 141.603ZM128.213 141.603C129.813 141.703 131.214 140.503 131.364 138.903H130.313C130.213 139.953 129.313 140.753 128.263 140.653C126.863 140.653 125.913 139.703 125.913 137.953V137.853C125.913 136.153 126.913 135.103 128.213 135.103C129.213 135.103 130.013 135.503 130.213 136.653H131.364C131.163 134.803 129.713 134.153 128.213 134.153C126.263 134.153 124.713 135.703 124.713 137.653C124.713 137.703 124.713 137.803 124.713 137.853V137.953C124.663 140.203 126.213 141.603 128.213 141.603ZM133.064 141.503H134.214V137.553C134.214 135.753 135.114 135.303 136.564 135.253V134.153C135.564 134.103 134.614 134.653 134.214 135.553V134.253H133.064V141.503ZM138.264 141.503H139.414V134.303H138.264V141.503ZM138.814 132.803C139.214 132.803 139.564 132.453 139.564 132.053C139.564 131.653 139.214 131.303 138.814 131.303C138.414 131.303 138.064 131.653 138.064 132.053C138.064 132.453 138.414 132.803 138.814 132.803ZM141.764 144.003H142.915V140.303C143.415 141.153 144.365 141.653 145.365 141.603C147.365 141.603 148.665 140.103 148.665 137.903V137.803C148.665 135.553 147.265 134.203 145.365 134.203C144.365 134.203 143.465 134.703 142.915 135.553V134.353H141.764V144.003ZM145.265 140.653C143.865 140.653 142.915 139.803 142.915 137.953V137.853C142.915 136.003 143.915 135.153 145.265 135.153C146.465 135.153 147.465 136.053 147.465 137.853V137.953C147.465 139.703 146.665 140.653 145.265 140.653ZM152.615 141.603C152.965 141.603 153.315 141.553 153.615 141.453V140.503C153.315 140.603 153.015 140.653 152.715 140.653C152.115 140.653 151.815 140.303 151.815 139.603V135.253H153.415V134.303H151.715V132.653H150.565V134.303H149.515V135.253H150.565V139.703C150.665 140.803 151.265 141.603 152.615 141.603ZM155.366 141.503H156.466V134.303H155.316L155.366 141.503ZM155.916 132.803C156.316 132.803 156.666 132.453 156.666 132.053C156.666 131.653 156.316 131.303 155.916 131.303C155.516 131.303 155.166 131.653 155.166 132.053C155.166 132.453 155.466 132.753 155.916 132.803ZM161.816 140.653C160.366 140.653 159.466 139.553 159.466 137.953V137.853C159.466 136.203 160.366 135.153 161.816 135.153C163.266 135.153 164.166 136.253 164.166 137.903V138.003C164.166 139.603 163.266 140.653 161.816 140.653ZM161.816 141.603C163.766 141.653 165.367 140.103 165.367 138.153C165.367 138.053 165.367 138.003 165.367 137.903V137.803C165.417 135.853 163.916 134.203 161.966 134.103C160.016 134.053 158.366 135.553 158.266 137.503C158.266 137.603 158.266 137.703 158.266 137.753V137.853C158.166 139.803 159.666 141.453 161.566 141.553C161.666 141.603 161.716 141.603 161.816 141.603ZM167.117 141.503H168.267V137.153C168.217 136.103 169.067 135.203 170.117 135.203C170.167 135.203 170.217 135.203 170.267 135.203C171.417 135.203 171.967 135.753 171.967 137.053V141.553H173.117V137.153C173.117 135.053 172.067 134.253 170.567 134.253C169.617 134.203 168.717 134.703 168.267 135.503V134.353H167.117V141.503ZM177.618 141.603C179.368 141.603 180.268 140.703 180.268 139.403C180.268 137.903 179.218 137.553 177.718 137.253C176.368 137.003 176.018 136.753 176.018 136.103C176.018 135.453 176.568 135.053 177.368 135.053C178.268 135.053 178.718 135.403 178.868 136.203H179.968C179.768 134.653 178.668 134.103 177.368 134.103C176.217 134.103 174.917 134.803 174.917 136.103C174.917 137.353 175.567 137.903 177.418 138.203C178.518 138.403 179.118 138.653 179.118 139.403C179.118 140.153 178.618 140.553 177.568 140.553C176.518 140.553 175.967 140.003 175.867 139.153H174.767C174.817 140.753 175.867 141.603 177.618 141.603Z" fill="white"/>
<path d="M36.6043 224.304C38.8045 224.304 40.4047 223.204 40.7047 220.904H39.6046C39.3546 222.504 38.2545 223.304 36.6043 223.304C34.5041 223.304 33.204 221.804 33.204 219.304V219.154C33.204 216.654 34.5541 215.104 36.6043 215.104C38.3045 215.104 39.1545 215.854 39.4046 217.404H40.6047C40.4047 215.254 38.6545 214.204 36.6043 214.204C33.9541 214.204 32.0039 216.304 32.0039 219.254V219.354C32.0039 222.304 33.7541 224.304 36.6043 224.304ZM44.405 224.304C45.3051 224.354 46.1052 223.954 46.6552 223.254V224.154H47.8053V219.404C47.8053 217.404 46.5552 216.804 45.1551 216.804C43.7549 216.804 42.4548 217.404 42.3048 219.054H43.4549C43.5549 218.154 44.105 217.754 45.1051 217.754C46.2052 217.754 46.6552 218.254 46.6552 219.354V219.854H45.6051C43.755 219.854 42.0048 220.404 42.0048 222.104C42.0048 223.654 43.1049 224.304 44.405 224.304ZM44.505 223.354C43.5049 223.354 43.1549 222.904 43.1549 222.154C43.1549 221.104 44.205 220.754 45.6551 220.754H46.6552V221.654C46.6552 222.754 45.7551 223.354 44.505 223.354ZM50.0055 224.154H51.1556V219.804C51.1056 218.754 51.9057 217.854 52.9558 217.854C53.0058 217.854 53.0558 217.854 53.1558 217.854C54.3059 217.854 54.8559 218.404 54.8559 219.704V224.204H56.006V219.804C56.006 217.704 54.9559 216.904 53.4558 216.904C52.5057 216.854 51.6056 217.354 51.1556 218.154V217.004H50.0055V224.154ZM61.2565 224.304C62.8567 224.404 64.2568 223.204 64.4068 221.604H63.3567C63.2567 222.654 62.3566 223.454 61.3065 223.354C59.9064 223.354 58.9563 222.404 58.9563 220.654V220.554C58.9563 218.854 59.9564 217.804 61.2565 217.804C62.2566 217.804 63.0567 218.204 63.2567 219.354H64.4068C64.2068 217.504 62.8066 216.804 61.2565 216.804C59.3063 216.804 57.7562 218.354 57.7562 220.304C57.7562 220.354 57.7562 220.454 57.7562 220.504V220.604C57.7562 222.854 59.2563 224.304 61.2565 224.304ZM69.0572 224.304C70.6573 224.304 71.9075 223.554 72.1075 222.104H70.9574C70.8074 222.954 70.1573 223.354 69.0572 223.354C67.5571 223.354 66.807 222.454 66.757 220.804H72.2075V220.454C72.2075 217.854 70.6573 216.854 68.9572 216.854C66.957 216.854 65.5569 218.354 65.5569 220.554V220.654C65.6069 222.854 67.057 224.304 69.0572 224.304ZM66.807 219.854C67.007 218.554 67.8071 217.754 68.9572 217.754C70.1073 217.754 70.9074 218.354 71.0074 219.854H66.807ZM73.9576 224.154H75.1077V213.504H73.9576V224.154ZM77.508 224.154H78.6581V213.504H77.508V224.154ZM82.8084 224.304C83.7085 224.354 84.5086 223.954 85.0586 223.254V224.154H86.2087V219.404C86.2087 217.404 84.9586 216.804 83.5585 216.804C82.1584 216.804 80.8583 217.404 80.7082 219.054H81.8583C81.9584 218.154 82.5084 217.754 83.5085 217.754C84.6086 217.754 85.0586 218.254 85.0586 219.354V219.854H84.0085C82.1584 219.854 80.4082 220.404 80.4082 222.104C80.4582 223.654 81.5083 224.304 82.8084 224.304ZM82.9084 223.354C81.9083 223.354 81.5583 222.904 81.5583 222.154C81.5583 221.104 82.6084 220.754 84.0585 220.754H85.0586V221.654C85.0586 222.754 84.1585 223.354 82.9084 223.354ZM90.6091 224.254C90.9591 224.254 91.2592 224.204 91.5592 224.104V223.154C91.2592 223.254 90.9591 223.304 90.6591 223.304C90.0591 223.304 89.759 222.954 89.759 222.254V217.904H91.4592V216.954H89.759V215.304H88.709V216.954H87.6589V217.904H88.709V222.354C88.709 223.504 89.359 224.254 90.6091 224.254ZM93.3594 224.154H94.5095V216.954H93.3594V224.154ZM93.9094 215.454C94.3094 215.454 94.6595 215.104 94.6595 214.704C94.6595 214.304 94.3094 213.954 93.9094 213.954C93.5094 213.954 93.1593 214.304 93.1593 214.704C93.1593 215.104 93.5094 215.454 93.9094 215.454C93.9594 215.454 93.9594 215.454 93.9094 215.454ZM99.8599 223.354C98.4098 223.354 97.5097 222.254 97.5097 220.654V220.554C97.5097 218.904 98.4098 217.854 99.8599 217.854C101.31 217.854 102.21 218.904 102.21 220.604V220.704C102.26 222.254 101.31 223.354 99.8599 223.354ZM99.8599 224.304C101.91 224.304 103.41 222.804 103.41 220.604V220.504C103.51 218.604 102.06 216.954 100.16 216.854C100.06 216.854 99.96 216.854 99.91 216.854C97.8598 216.854 96.3596 218.354 96.3596 220.554V220.654C96.2596 222.604 97.7598 224.204 99.7099 224.304C99.7099 224.304 99.8099 224.304 99.8599 224.304ZM105.16 224.154H106.311V219.804C106.261 218.754 107.061 217.854 108.111 217.854C108.161 217.854 108.211 217.854 108.311 217.854C109.461 217.854 110.011 218.404 110.011 219.704V224.204H111.161V219.804C111.161 217.704 110.111 216.904 108.611 216.904C107.661 216.854 106.761 217.354 106.311 218.154V217.004H105.16V224.154ZM115.661 224.304C117.412 224.304 118.312 223.404 118.312 222.104C118.312 220.554 117.261 220.254 115.761 219.954C114.461 219.704 114.061 219.454 114.061 218.804C114.061 218.154 114.611 217.754 115.411 217.754C116.311 217.754 116.761 218.104 116.911 218.854H118.012C117.812 217.304 116.711 216.754 115.411 216.754C114.261 216.754 112.961 217.454 112.961 218.804C112.961 220.054 113.611 220.604 115.461 220.904C116.561 221.104 117.161 221.354 117.161 222.104C117.161 222.854 116.661 223.254 115.611 223.254C114.561 223.254 114.011 222.704 113.911 221.854H112.811C112.911 223.404 113.961 224.304 115.661 224.304Z" fill="white"/>
<path d="M0.449219 254.405H336.629" stroke="#1C1D22" stroke-width="1.84" stroke-linecap="square"/>
<path d="M32.0039 103.852H33.8541V100.102H35.2542C37.3544 100.102 38.8545 99.2019 38.8545 97.1019V97.0519C38.8545 95.0018 37.4044 94.0018 35.2042 94.0018H32.0539V103.852H32.0039ZM33.8541 98.7519V95.4018H35.2042C36.3543 95.4018 37.0544 95.8518 37.0544 97.0019V97.0519C37.0544 98.1519 36.4043 98.7519 35.2042 98.7519H33.8541ZM42.0048 104.002C42.8549 104.052 43.7049 103.702 44.205 103.002V103.902H45.8551V99.1519C45.8551 97.2019 44.605 96.5019 42.9549 96.5019C41.3047 96.5019 40.0046 97.2019 39.8546 98.9019H41.4547C41.5548 98.2019 41.9548 97.7519 42.8549 97.7519C43.855 97.7519 44.155 98.2519 44.155 99.2019V99.5519H43.2549C41.2047 99.5519 39.5546 100.152 39.5546 101.852C39.6046 103.352 40.7047 104.002 42.0048 104.002ZM42.4048 102.752C41.5547 102.752 41.2547 102.352 41.2547 101.752C41.2547 100.852 42.0548 100.602 43.3549 100.602H44.205V101.302C44.205 102.252 43.4549 102.752 42.4048 102.752ZM48.3554 106.252H50.0055L53.9559 96.6519H52.3557L50.6056 101.302L48.7054 96.6519H46.9052L49.7555 103.152L48.3554 106.252ZM58.1562 102.652C56.9061 102.652 56.156 101.752 56.156 100.252V100.152C56.156 98.6519 56.9061 97.7519 58.1562 97.7519C59.4063 97.7519 60.1564 98.6519 60.1564 100.152V100.252C60.1064 101.752 59.4063 102.702 58.1562 102.652ZM58.1562 103.952C60.1064 104.052 61.7565 102.552 61.8566 100.602C61.8566 100.502 61.8566 100.352 61.8566 100.252V100.152C61.8566 98.1019 60.1564 96.4519 58.1562 96.4519C56.106 96.4519 54.4559 98.1519 54.4559 100.152V100.252C54.3559 102.202 55.906 103.852 57.8562 103.902C57.9562 104.002 58.0562 104.002 58.1562 103.952ZM65.7569 103.952C66.707 104.002 67.6071 103.502 68.0571 102.702V103.852H69.7073V96.6519H68.0571V100.952C68.1071 101.852 67.4571 102.602 66.557 102.652C66.507 102.652 66.407 102.652 66.357 102.652C65.4069 102.652 64.9568 102.152 64.9568 101.052V96.6519H63.3067V101.252C63.2567 103.152 64.3568 104.002 65.7569 103.952ZM74.1576 103.952C74.5577 103.952 74.9077 103.902 75.3078 103.752V102.452C75.0577 102.552 74.7577 102.602 74.5077 102.602C74.0076 102.602 73.6576 102.302 73.6576 101.702V97.9019H75.2578V96.6519H73.6576V95.0518H71.9575V96.6519H71.0074V97.9019H71.9575V101.852C71.9575 103.202 72.7075 103.952 74.1576 103.952ZM83.5585 103.952C85.7087 103.952 87.1588 102.602 87.1588 100.902C87.1588 98.9519 85.9587 98.2519 83.6585 97.9519C81.9583 97.7019 81.6083 97.3019 81.6083 96.5019C81.6083 95.7018 82.2084 95.2018 83.3085 95.2018C84.4086 95.2018 85.0086 95.6518 85.2086 96.7019H86.9088C86.7088 94.8018 85.4587 93.8518 83.3085 93.8518C81.1583 93.8518 79.8582 95.0518 79.8582 96.7019C79.8582 98.5519 80.9583 99.2519 83.3085 99.6019C84.9086 99.8519 85.3587 100.202 85.3587 101.102C85.3587 102.002 84.6086 102.602 83.5085 102.602C81.8583 102.602 81.4583 101.752 81.3083 100.802H79.5581C79.7081 102.652 80.8582 104.002 83.5585 103.952ZM91.1592 103.952C92.1092 104.002 93.0093 103.502 93.4594 102.702V103.852H95.1095V96.6519H93.4594V100.952C93.5094 101.852 92.8593 102.602 91.9592 102.652C91.9092 102.652 91.8092 102.652 91.7592 102.652C90.8091 102.652 90.3591 102.152 90.3591 101.052V96.6519H88.7089V101.252C88.6589 103.152 89.709 104.002 91.1592 103.952ZM97.1097 103.802H98.7598V99.5019C98.7098 98.6519 99.3099 97.9019 100.16 97.8519C100.21 97.8519 100.26 97.8519 100.36 97.8519C101.16 97.8519 101.66 98.3019 101.66 99.3519V103.802H103.31V99.5019C103.26 98.6519 103.86 97.9019 104.71 97.8519C104.76 97.8519 104.81 97.8519 104.91 97.8519C105.76 97.8519 106.211 98.3019 106.211 99.3519V103.802H107.861V99.2519C107.861 97.2519 106.761 96.4519 105.46 96.4519C104.46 96.4519 103.56 96.9019 103.01 97.7519C102.71 96.9019 101.86 96.4019 100.96 96.4519C100.06 96.4019 99.2099 96.9019 98.7598 97.7019V96.7019H97.1097V103.802ZM109.761 103.802H111.411V99.5019C111.361 98.6519 111.961 97.9019 112.811 97.8519C112.861 97.8519 112.911 97.8519 112.961 97.8519C113.761 97.8519 114.261 98.3019 114.261 99.3519V103.802H115.911V99.5019C115.861 98.6519 116.461 97.9019 117.311 97.8519C117.361 97.8519 117.411 97.8519 117.512 97.8519C118.362 97.8519 118.812 98.3019 118.812 99.3519V103.802H120.462V99.2519C120.462 97.2519 119.362 96.4519 118.062 96.4519C117.061 96.4519 116.161 96.9019 115.611 97.7519C115.311 96.9019 114.461 96.4019 113.561 96.4519C112.661 96.4019 111.811 96.9019 111.361 97.7019V96.7019H109.711L109.761 103.802ZM124.262 103.952C125.112 104.002 125.962 103.652 126.462 102.952V103.852H128.112V99.1519C128.112 97.2019 126.862 96.5019 125.212 96.5019C123.562 96.5019 122.262 97.2019 122.112 98.9019H123.712C123.812 98.2019 124.212 97.7519 125.112 97.7519C126.112 97.7519 126.412 98.2519 126.412 99.2019V99.5519H125.512C123.462 99.5519 121.812 100.152 121.812 101.852C121.862 103.352 122.962 104.002 124.262 103.952ZM124.662 102.752C123.812 102.752 123.512 102.352 123.512 101.752C123.512 100.852 124.312 100.602 125.612 100.602H126.462V101.302C126.462 102.252 125.662 102.752 124.662 102.752ZM130.013 103.802H131.663V100.052C131.663 98.5019 132.563 98.0519 134.013 98.0519V96.5019C133.013 96.4519 132.063 97.0519 131.663 97.9519V96.6519H130.013V103.802ZM136.363 106.252H138.013L141.964 96.6019H140.314L138.563 101.252L136.663 96.6019H134.863L137.713 103.102L136.363 106.252Z" fill="white"/>
<path d="M260.523 293.055H262.374V283.205H260.523V293.055ZM264.274 293.055H265.924V288.805C265.874 287.905 266.524 287.155 267.374 287.105C267.474 287.105 267.524 287.105 267.624 287.105C268.624 287.105 269.074 287.605 269.074 288.705V293.105H270.724V288.555C270.724 286.555 269.724 285.705 268.274 285.705C267.324 285.655 266.424 286.155 265.924 287.005V285.855H264.274V293.055ZM274.875 293.205C276.725 293.205 277.775 292.355 277.775 290.905C277.775 289.455 276.775 288.955 275.075 288.705C273.925 288.505 273.575 288.305 273.575 287.805C273.575 287.305 273.975 286.955 274.725 286.955C275.475 286.955 275.875 287.255 276.025 287.905H277.575C277.375 286.305 276.225 285.755 274.725 285.755C273.375 285.755 272.024 286.455 272.024 287.905C272.024 289.255 272.725 289.805 274.625 290.105C275.675 290.305 276.175 290.505 276.175 291.105C276.175 291.705 275.775 292.005 274.875 292.005C273.875 292.005 273.525 291.555 273.425 290.855H271.874C271.924 292.305 272.975 293.205 274.875 293.205ZM281.375 293.205C281.775 293.205 282.125 293.155 282.525 293.005V291.655C282.275 291.755 281.975 291.805 281.725 291.805C281.225 291.805 280.875 291.505 280.875 290.905V287.105H282.475V285.855H280.875V284.255H279.225V285.855H278.275V287.105H279.225V291.055C279.225 292.405 279.975 293.155 281.375 293.205ZM285.726 293.205C286.576 293.255 287.426 292.905 287.926 292.205V293.105H289.576V288.405C289.576 286.455 288.326 285.755 286.676 285.755C285.026 285.755 283.726 286.455 283.576 288.155H285.176C285.276 287.455 285.676 287.005 286.576 287.005C287.576 287.005 287.876 287.505 287.876 288.455V288.855H286.976C284.926 288.855 283.275 289.455 283.275 291.155C283.275 292.555 284.376 293.205 285.726 293.205ZM286.126 292.005C285.276 292.005 284.976 291.605 284.976 291.005C284.976 290.105 285.776 289.855 287.076 289.855H287.926V290.555C287.876 291.455 287.126 292.005 286.126 292.005ZM291.176 293.055H292.826V288.805C292.776 287.905 293.426 287.155 294.276 287.105C294.376 287.105 294.426 287.105 294.526 287.105C295.527 287.105 295.977 287.605 295.977 288.705V293.105H297.627V288.555C297.627 286.555 296.627 285.705 295.177 285.705C294.226 285.655 293.326 286.155 292.826 287.005V285.855H291.176V293.055ZM301.777 293.155C302.177 293.155 302.527 293.105 302.927 292.955V291.655C302.677 291.755 302.377 291.805 302.127 291.805C301.627 291.805 301.277 291.505 301.277 290.905V287.105H302.877V285.855H301.277V284.255H299.627V285.855H298.677V287.105H299.627V291.055C299.577 292.405 300.327 293.155 301.777 293.155Z" fill="white"/>
<path d="M32.0039 293.055H33.204V289.055H34.8042C36.7043 289.055 38.2545 288.255 38.2545 286.155V286.105C38.2545 284.055 36.7043 283.205 34.8042 283.205H32.0039V293.055ZM33.204 288.105V284.155H34.9042C36.2543 284.155 37.0544 284.655 37.0544 286.055V286.105C37.0544 287.355 36.3043 288.055 34.9042 288.055L33.204 288.105ZM41.6548 293.155C42.5048 293.205 43.3549 292.805 43.905 292.105V293.005H45.0551V288.255C45.0551 286.255 43.805 285.655 42.4048 285.655C41.0047 285.655 39.7046 286.255 39.5546 287.905H40.7047C40.8047 287.005 41.3547 286.605 42.3548 286.605C43.4549 286.605 43.905 287.105 43.905 288.205V288.705H42.8549C41.0047 288.705 39.2546 289.255 39.2546 290.955C39.2546 292.505 40.3546 293.155 41.6548 293.155ZM41.8048 292.255C40.8047 292.255 40.4547 291.805 40.4547 291.055C40.4547 290.005 41.5047 289.655 42.9549 289.655H43.955V290.555C43.905 291.655 43.0049 292.255 41.8048 292.255ZM47.7553 295.555H48.9054L52.9058 285.855H51.7557L49.7555 291.005L47.5553 285.855H46.3552L49.2054 292.305L47.7553 295.555ZM57.2061 292.205C55.756 292.205 54.8559 291.105 54.8559 289.505V289.405C54.8559 287.755 55.756 286.705 57.2061 286.705C58.6563 286.705 59.5564 287.805 59.5564 289.455V289.555C59.5564 291.155 58.6563 292.205 57.2061 292.205ZM57.2061 293.155C59.2563 293.155 60.7565 291.655 60.7565 289.505V289.405C60.8565 287.505 59.4063 285.855 57.5062 285.755C57.4062 285.755 57.3062 285.755 57.2562 285.755C55.206 285.755 53.7058 287.255 53.7058 289.405V289.505C53.6058 291.455 55.106 293.055 57.0561 293.155C57.0561 293.155 57.1561 293.155 57.2061 293.155ZM64.9568 293.155C65.9069 293.205 66.807 292.705 67.257 291.905V293.055H68.4071V285.855H67.257V290.205C67.307 291.255 66.507 292.155 65.4569 292.155C65.4069 292.155 65.3569 292.155 65.2569 292.155C64.1068 292.155 63.6067 291.605 63.6067 290.305V285.805H62.5066V290.355C62.4566 292.405 63.5067 293.155 64.9568 293.155ZM72.9075 293.155C73.2576 293.155 73.6076 293.105 73.9076 293.005V292.055C73.6076 292.155 73.3076 292.205 73.0076 292.205C72.4075 292.205 72.1075 291.855 72.1075 291.155V286.805H73.8076V285.855H72.1075V284.205H70.9574V285.855H69.9073V286.805H70.9574V291.255C70.8574 292.205 71.6074 293.055 72.5575 293.155C72.6575 293.155 72.7575 293.155 72.9075 293.155ZM80.5582 292.105V284.155H81.9083C84.6086 284.155 85.7087 285.755 85.7087 288.005V288.105C85.7087 290.505 84.4586 292.005 81.9083 292.005L80.5582 292.105ZM79.3581 293.105H81.9584C85.4087 293.105 86.9588 290.955 86.9588 288.205V288.105C86.9588 285.355 85.3587 283.255 81.9584 283.255H79.3581V293.105ZM90.6591 293.205C91.5092 293.255 92.3593 292.855 92.9093 292.155V293.055H94.0594V288.305C94.0594 286.305 92.8093 285.705 91.4092 285.705C90.0091 285.705 88.709 286.305 88.5589 287.955H89.709C89.8091 287.055 90.3591 286.655 91.3592 286.655C92.4593 286.655 92.9093 287.155 92.9093 288.255V288.755H91.8592C90.0091 288.755 88.2589 289.305 88.2589 291.005C88.2589 292.455 89.309 293.105 90.6591 293.105V293.205ZM90.7591 292.305C89.759 292.305 89.409 291.855 89.409 291.105C89.409 290.055 90.4591 289.705 91.9092 289.705H92.9093V290.605C92.9093 291.705 91.9592 292.305 90.7591 292.305ZM98.4598 293.155C98.8099 293.155 99.1599 293.105 99.4599 293.005V292.055C99.1599 292.155 98.8599 292.205 98.5598 292.205C97.9598 292.205 97.6597 291.855 97.6597 291.155V286.805H99.3599V285.855H97.6597V284.205H96.5097V285.855H95.4596V286.805H96.5097V291.255C96.5097 292.355 97.1597 293.155 98.4598 293.155ZM104.11 293.155C105.71 293.155 106.961 292.405 107.161 290.955H106.01C105.86 291.805 105.21 292.205 104.11 292.205C102.66 292.205 101.86 291.305 101.81 289.655H107.211V289.305C107.211 286.705 105.66 285.705 103.96 285.705C101.96 285.705 100.56 287.205 100.56 289.405V289.505C100.61 291.755 102.06 293.155 104.11 293.155ZM101.86 288.755C102.06 287.455 102.86 286.655 104.01 286.655C105.16 286.655 105.96 287.255 106.061 288.755H101.86Z" fill="white"/>
<path fill-rule="evenodd" clip-rule="evenodd" d="M32.0547 463.509C32.0547 459.158 35.605 455.608 39.9554 455.608H297.128C301.479 455.608 305.029 459.158 305.029 463.509V501.659C305.029 506.009 301.479 509.559 297.128 509.559H40.0054C35.655 509.559 32.1047 506.009 32.1047 501.659V463.509H32.0547Z" fill="url(#paint0_linear)"/>
<path d="M35.455 371.257H36.9051V360.657H40.3554V359.507H32.0547V360.657H35.505V371.257H35.455ZM44.5558 370.257C42.8056 370.257 41.7055 368.957 41.7055 367.007V366.857C41.7055 364.857 42.8056 363.557 44.5558 363.557C46.306 363.557 47.4061 364.857 47.4061 366.857V366.957C47.356 369.007 46.306 370.307 44.5558 370.257ZM44.5558 371.407C47.006 371.407 48.8062 369.607 48.8062 367.007V366.857C48.8062 364.257 47.006 362.457 44.5558 362.457C42.1056 362.457 40.3054 364.257 40.3054 366.857V367.007C40.3054 369.557 42.0556 371.457 44.5558 371.407ZM53.5566 371.407C53.9566 371.407 54.3567 371.357 54.7067 371.207V370.057C54.3567 370.207 54.0066 370.257 53.6566 370.257C52.9565 370.257 52.5565 369.857 52.5565 369.007V363.807H54.5567V362.657H52.5565V360.657H51.2064V362.657H49.9563V363.807H51.2064V369.157C51.2064 370.457 52.0065 371.407 53.5566 371.407ZM59.0571 371.407C60.1072 371.457 61.1073 371.007 61.7573 370.157V371.257H63.1575V365.557C63.1575 363.157 61.6573 362.457 60.0072 362.457C58.357 362.457 56.7569 363.207 56.6069 365.157H57.957C58.107 364.107 58.7571 363.607 59.9572 363.607C61.3073 363.607 61.8073 364.207 61.8073 365.557V366.207H60.5572C58.357 366.207 56.2068 366.907 56.2068 368.907C56.1568 370.657 57.4569 371.457 59.0571 371.407ZM59.2071 370.307C58.007 370.307 57.557 369.757 57.557 368.857C57.557 367.557 58.8571 367.157 60.5572 367.157H61.7573V368.257C61.7573 369.607 60.6572 370.357 59.2071 370.307ZM65.8577 371.257H67.2578V358.457H65.8577V371.257ZM74.5085 371.257H75.9586V366.457H77.8588C80.109 366.457 82.0091 365.457 82.0091 362.957V362.907C82.0091 360.457 80.159 359.457 77.8588 359.457H74.5085V371.257ZM75.9586 365.307V360.607H77.9588C79.5589 360.607 80.559 361.207 80.559 362.907V362.957C80.559 364.457 79.6589 365.307 77.9588 365.307H75.9586ZM86.1095 371.407C87.1596 371.457 88.1597 371.007 88.8097 370.157V371.257H90.2099V365.557C90.2099 363.157 88.7097 362.457 87.0596 362.457C85.4094 362.457 83.8093 363.207 83.6593 365.157H85.0094C85.1594 364.107 85.8095 363.607 87.0096 363.607C88.3097 363.607 88.8597 364.207 88.8597 365.557V366.207H87.6096C85.4094 366.207 83.2593 366.907 83.2593 368.907C83.2593 370.657 84.5094 371.457 86.1095 371.407ZM86.2595 370.307C85.0594 370.307 84.6094 369.757 84.6094 368.857C84.6094 367.557 85.9095 367.157 87.6096 367.157H88.8097V368.257C88.8097 369.607 87.7096 370.357 86.2595 370.307ZM93.4101 374.257H94.8103L99.6107 362.607H98.2106L95.8104 368.807L93.1601 362.607H91.71L95.1103 370.357L93.4101 374.257ZM104.761 370.257C103.011 370.257 101.911 368.957 101.911 367.007V366.857C101.911 364.857 103.011 363.557 104.761 363.557C106.511 363.557 107.611 364.857 107.611 366.857V366.957C107.561 369.007 106.461 370.307 104.761 370.257ZM104.761 371.407C107.211 371.407 109.012 369.607 109.012 367.007V366.857C109.012 364.257 107.211 362.457 104.761 362.457C102.311 362.457 100.511 364.257 100.511 366.857V367.007C100.511 369.557 102.261 371.457 104.761 371.407ZM114.062 371.407C115.212 371.457 116.262 370.907 116.812 369.907V371.257H118.162V362.657H116.812V367.907C116.862 369.157 115.862 370.207 114.612 370.257C114.562 370.257 114.462 370.257 114.412 370.257C113.062 370.257 112.412 369.557 112.412 368.057V362.657H111.012V368.107C111.062 370.507 112.312 371.457 114.062 371.407ZM123.563 371.407C123.963 371.407 124.363 371.357 124.713 371.207V370.057C124.363 370.207 124.013 370.257 123.663 370.257C122.963 370.257 122.563 369.857 122.563 369.007V363.807H124.563V362.657H122.563V360.657H121.213V362.657H119.963V363.807H121.213V369.157C121.213 370.457 122.013 371.407 123.563 371.407Z" fill="white"/>
<path d="M0.75 427.108H336.33" stroke="#1C1D22" stroke-width="1.84" stroke-linecap="square"/>
<path d="M0.449219 326.056H336.629" stroke="#1C1D22" stroke-width="1.84" stroke-linecap="square"/>
<path opacity="0.08" d="M2 49.2009H335.53" stroke="white" stroke-width="1.84" stroke-linecap="square"/>
<path opacity="0.08" d="M0.449219 255.405H336.629" stroke="white" stroke-width="1.84" stroke-linecap="square"/>
<path opacity="0.08" d="M0.75 428.108H336.33" stroke="white" stroke-width="1.84" stroke-linecap="square"/>
<path opacity="0.08" d="M0.449219 327.056H336.629" stroke="white" stroke-width="1.84" stroke-linecap="square"/>
<path d="M93.7067 47.751H27.5508V48.651H93.7067V47.751Z" fill="white"/>
<path d="M249.47 287.755H245.67L247.17 281.955L239.82 290.855H243.62L242.12 296.655L249.47 287.755Z" fill="#03C3FF"/>
<path d="M112.809 487.059H114.109V482.509H115.709L118.859 487.059H120.259L117.059 482.409C118.509 482.109 119.659 481.259 119.659 479.559V479.509C119.659 477.409 118.009 476.609 116.009 476.609H112.859V487.059H112.809ZM114.059 481.509V477.609H116.009C117.409 477.609 118.309 478.059 118.309 479.509V479.559C118.309 480.859 117.509 481.509 116.009 481.509H114.059ZM124.86 487.209C126.61 487.209 127.86 486.409 128.16 484.859H126.96C126.81 485.759 126.11 486.209 124.91 486.209C123.31 486.209 122.509 485.259 122.459 483.509H128.21V483.109C128.21 480.359 126.56 479.259 124.76 479.259C122.659 479.259 121.159 480.859 121.159 483.209V483.309C121.159 485.709 122.659 487.209 124.86 487.209ZM122.459 482.509C122.659 481.159 123.51 480.309 124.76 480.309C126.01 480.309 126.86 480.959 126.96 482.509H122.459ZM131.91 487.059H133.46L136.211 479.359H134.961L132.71 485.809L130.41 479.359H129.06L131.91 487.059ZM137.861 487.059H139.061V479.359H137.861V487.059ZM138.461 477.809C138.911 477.809 139.261 477.459 139.261 477.009C139.261 476.559 138.911 476.209 138.461 476.209C138.011 476.209 137.661 476.559 137.661 477.009C137.661 477.409 138.011 477.809 138.461 477.809ZM144.761 487.209C146.512 487.209 147.762 486.409 148.062 484.859H146.862C146.712 485.759 146.012 486.209 144.811 486.209C143.211 486.209 142.411 485.259 142.361 483.509H148.162V483.109C148.162 480.359 146.512 479.259 144.711 479.259C142.611 479.259 141.111 480.859 141.111 483.209V483.309C141.011 485.709 142.561 487.209 144.761 487.209ZM142.311 482.509C142.511 481.159 143.361 480.309 144.611 480.309C145.862 480.309 146.712 480.959 146.812 482.509H142.311ZM151.412 487.059H152.762L154.562 481.309L156.162 487.059H157.513L159.913 479.359H158.663L156.862 485.559L155.112 479.359H154.062L152.212 485.559L150.412 479.359H149.062L151.412 487.059ZM170.214 486.159C168.013 486.159 166.313 484.409 166.313 481.859V481.759C166.313 479.259 167.713 477.459 170.164 477.459C172.614 477.459 173.964 479.359 173.964 481.709V481.809C173.964 484.409 172.564 486.159 170.214 486.159ZM170.214 487.209C173.264 487.209 175.314 484.809 175.314 481.859V481.759C175.314 478.809 173.264 476.459 170.164 476.459C167.063 476.459 165.013 478.809 165.013 481.809V481.909C165.013 484.809 167.113 487.209 170.214 487.209ZM177.364 487.059H178.564V482.859C178.564 480.959 179.565 480.459 181.115 480.409V479.259C180.065 479.209 179.064 479.809 178.564 480.759V479.359H177.364V487.059ZM185.565 487.209C186.615 487.159 187.615 486.659 188.215 485.759V487.109H189.415V475.759H188.215V480.709C187.715 479.809 186.715 479.309 185.715 479.359C183.615 479.359 182.115 481.009 182.115 483.359V483.459C182.065 485.809 183.515 487.209 185.565 487.209ZM185.665 486.209C184.365 486.209 183.315 485.309 183.315 483.359V483.259C183.315 481.409 184.215 480.309 185.765 480.309C187.315 480.309 188.215 481.209 188.215 483.209V483.309C188.215 485.259 187.115 486.209 185.665 486.209ZM195.016 487.209C196.766 487.209 198.016 486.409 198.316 484.859H197.116C196.966 485.759 196.266 486.209 195.066 486.209C193.466 486.209 192.666 485.259 192.616 483.509H198.416V483.109C198.416 480.359 196.766 479.259 194.966 479.259C192.866 479.259 191.366 480.859 191.366 483.209V483.309C191.266 485.709 192.816 487.209 195.016 487.209ZM192.616 482.509C192.816 481.159 193.666 480.309 194.916 480.309C196.166 480.309 197.016 480.959 197.116 482.509H192.616ZM200.216 487.059H201.416V482.859C201.416 480.959 202.417 480.459 203.967 480.409V479.259C202.917 479.209 201.917 479.809 201.416 480.759V479.359H200.216V487.059Z" fill="black"/>
<path d="M236.274 482.109L231.774 478.209C231.524 478.059 231.224 478.109 231.073 478.359C230.923 478.559 230.973 478.809 231.123 478.959L234.574 481.959H222.223C221.923 481.959 221.723 482.159 221.723 482.459C221.723 482.759 221.923 482.959 222.223 482.959H234.724L232.724 484.709L231.174 485.909C230.973 486.109 230.923 486.409 231.123 486.609C231.223 486.709 231.374 486.809 231.524 486.809C231.624 486.809 231.724 486.759 231.824 486.709L233.374 485.459L236.274 482.859C236.374 482.759 236.424 482.609 236.424 482.459C236.474 482.359 236.374 482.209 236.274 482.109Z" fill="black"/>
<path d="M35.4034 394.557H300.827C302.627 394.557 304.027 396.007 304.027 397.757C304.027 399.557 302.577 400.957 300.827 400.957H35.4034C33.6032 400.957 32.2031 399.507 32.2031 397.757C32.2031 396.007 33.6533 394.557 35.4034 394.557Z" fill="#171616"/>
<path d="M35.4034 394.557H269.074C270.874 394.557 272.274 396.007 272.274 397.757C272.274 399.557 270.824 400.957 269.074 400.957H35.4034C33.6032 400.957 32.2031 399.507 32.2031 397.757C32.2031 396.007 33.6533 394.557 35.4034 394.557Z" fill="url(#paint1_linear)"/>
<path d="M330.58 334.356C330.58 332.606 329.18 331.206 327.43 331.206H208.869C207.119 331.206 205.719 332.606 205.719 334.356V370.207C205.719 371.957 207.119 373.357 208.869 373.357H255.973C256.723 373.357 257.423 373.607 258.023 374.107L268.174 382.607L277.375 374.207C277.975 373.657 278.725 373.357 279.525 373.357H327.48C329.23 373.357 330.63 371.957 330.63 370.207L330.58 334.356Z" fill="black"/>
<path d="M217.671 362.457H218.571V355.857H220.721V355.107H215.57V355.857H217.72V362.457H217.671ZM221.421 362.457H222.271V359.507C222.271 358.207 222.971 357.857 224.021 357.807V357.007C223.271 356.957 222.571 357.407 222.271 358.057V357.107H221.421V362.457ZM226.571 362.507C227.221 362.557 227.871 362.257 228.221 361.757V362.407H229.072V358.857C229.072 357.357 228.121 356.957 227.121 356.957C226.121 356.957 225.121 357.407 225.021 358.607H225.871C225.971 357.957 226.371 357.657 227.071 357.657C227.871 357.657 228.221 358.007 228.221 358.857V359.257H227.421C226.071 359.257 224.721 359.657 224.721 360.907C224.821 362.057 225.571 362.507 226.571 362.507ZM226.671 361.857C225.921 361.857 225.671 361.507 225.671 360.957C225.671 360.157 226.471 359.907 227.521 359.907H228.271V360.557C228.271 361.407 227.571 361.857 226.671 361.857ZM232.772 362.507C233.522 362.507 234.172 362.107 234.622 361.507V362.407H235.472V354.507H234.622V357.907C234.272 357.307 233.572 356.907 232.872 356.957C231.372 356.957 230.372 358.107 230.372 359.757V359.857C230.372 361.557 231.372 362.507 232.772 362.507ZM232.872 361.807C231.972 361.807 231.222 361.157 231.222 359.807V359.707C231.222 358.407 231.872 357.657 232.922 357.657C233.972 357.657 234.622 358.307 234.622 359.657V359.757C234.672 361.157 233.872 361.807 232.872 361.807ZM239.372 362.507C240.573 362.507 241.473 361.957 241.673 360.857H240.823C240.723 361.457 240.223 361.807 239.422 361.807C238.322 361.807 237.722 361.157 237.722 359.907H241.773V359.657C241.773 357.757 240.623 357.007 239.372 357.007C237.872 357.007 236.872 358.157 236.872 359.757V359.857C236.822 361.457 237.872 362.507 239.372 362.507ZM237.722 359.257C237.872 358.307 238.472 357.707 239.322 357.707C240.173 357.707 240.773 358.157 240.873 359.257H237.722ZM245.773 362.457H250.023V361.707H246.673V355.107H245.773V362.457ZM251.223 362.457H252.074V357.107H251.223V362.457ZM251.624 355.957C251.924 355.957 252.174 355.707 252.174 355.407C252.174 355.107 251.924 354.857 251.624 354.857C251.323 354.857 251.073 355.107 251.073 355.407C251.073 355.707 251.323 355.957 251.624 355.957ZM253.824 362.457H254.674V359.157C254.624 358.407 255.224 357.757 255.974 357.707C256.024 357.707 256.024 357.707 256.074 357.707C256.824 357.707 257.224 358.107 257.224 359.057V362.457H258.074V359.157C258.024 358.407 258.624 357.757 259.374 357.707C259.424 357.707 259.424 357.707 259.474 357.707C260.224 357.707 260.624 358.107 260.624 359.057V362.457H261.474V359.157C261.474 357.607 260.624 357.007 259.674 357.007C258.924 357.007 258.224 357.357 257.824 358.007C257.574 357.357 256.924 356.957 256.274 357.007C255.624 357.007 254.974 357.357 254.674 357.907V357.107H253.824V362.457ZM263.175 362.457H264.025V357.107H263.175V362.457ZM263.575 355.957C263.875 355.957 264.125 355.707 264.125 355.407C264.125 355.107 263.875 354.857 263.575 354.857C263.275 354.857 263.025 355.107 263.025 355.407C263.025 355.707 263.275 355.957 263.575 355.957ZM267.375 362.507C267.625 362.507 267.875 362.457 268.075 362.407V361.657C267.875 361.757 267.625 361.757 267.425 361.757C266.975 361.757 266.775 361.507 266.775 360.957V357.757H268.025V357.057H266.775V355.857H265.925V357.057H265.175V357.757H265.925V361.057C265.825 361.757 266.375 362.407 267.075 362.507C267.175 362.507 267.275 362.507 267.375 362.507ZM272.175 362.407H273.075V359.207H274.176L276.376 362.407H277.376L275.126 359.157C276.126 358.957 276.926 358.357 276.926 357.157C276.926 355.707 275.776 355.107 274.376 355.107H272.175V362.407ZM273.075 358.507V355.807H274.426C275.426 355.807 276.026 356.157 276.026 357.107V357.157C276.026 358.057 275.476 358.507 274.426 358.507H273.075ZM280.576 362.507C281.776 362.507 282.676 361.957 282.876 360.857H282.026C281.926 361.457 281.426 361.807 280.626 361.807C279.526 361.807 278.926 361.157 278.926 359.907H282.976V359.657C282.976 357.757 281.826 357.007 280.576 357.007C279.076 357.007 278.076 358.157 278.076 359.757V359.857C277.976 361.257 278.976 362.457 280.376 362.557C280.376 362.507 280.476 362.507 280.576 362.507ZM278.876 359.257C279.026 358.307 279.576 357.707 280.476 357.707C281.376 357.707 281.926 358.157 282.026 359.257H278.876ZM284.176 362.457H285.026V359.157C284.976 358.407 285.577 357.757 286.327 357.707C286.377 357.707 286.377 357.707 286.427 357.707C287.177 357.707 287.577 358.107 287.577 359.057V362.457H288.427V359.157C288.377 358.407 288.977 357.757 289.727 357.707C289.777 357.707 289.777 357.707 289.827 357.707C290.577 357.707 290.977 358.107 290.977 359.057V362.457H291.827V359.157C291.827 357.607 290.977 357.007 290.027 357.007C289.277 357.007 288.577 357.357 288.177 358.007C287.927 357.357 287.277 356.957 286.627 357.007C285.977 357.007 285.327 357.357 285.026 357.907V357.107H284.176V362.457ZM294.827 362.507C295.477 362.557 296.127 362.257 296.478 361.757V362.407H297.328V358.857C297.328 357.357 296.377 356.957 295.377 356.957C294.377 356.957 293.377 357.407 293.277 358.607H294.127C294.227 357.957 294.627 357.657 295.377 357.657C296.177 357.657 296.528 358.007 296.528 358.857V359.257H295.777C294.377 359.257 293.077 359.657 293.077 360.907C293.077 362.057 293.877 362.507 294.827 362.507ZM294.927 361.857C294.177 361.857 293.927 361.507 293.927 360.957C293.927 360.157 294.727 359.907 295.777 359.907H296.528V360.557C296.528 361.407 295.877 361.857 294.927 361.857ZM299.078 362.457H299.928V357.107H299.078V362.457ZM299.478 355.957C299.778 355.957 300.028 355.707 300.028 355.407C300.028 355.107 299.778 354.857 299.478 354.857C299.178 354.857 298.928 355.107 298.928 355.407C298.878 355.707 299.128 355.957 299.478 355.957ZM301.628 362.457H302.478V359.207C302.428 358.407 303.028 357.757 303.828 357.757C303.878 357.757 303.928 357.757 303.978 357.757C304.828 357.757 305.228 358.157 305.228 359.107V362.457H306.078V359.157C306.078 357.607 305.278 357.007 304.178 357.007C303.478 356.957 302.778 357.357 302.478 357.957V357.107H301.628V362.457ZM307.779 362.457H308.629V357.107H307.779V362.457ZM308.229 355.957C308.529 355.957 308.779 355.707 308.779 355.407C308.779 355.107 308.529 354.857 308.229 354.857C307.929 354.857 307.679 355.107 307.679 355.407C307.629 355.707 307.879 355.957 308.229 355.957C308.179 355.957 308.229 355.957 308.229 355.957ZM310.379 362.457H311.229V359.207C311.179 358.407 311.779 357.757 312.579 357.757C312.629 357.757 312.679 357.757 312.729 357.757C313.579 357.757 313.979 358.157 313.979 359.107V362.457H314.829V359.157C314.829 357.607 314.029 357.007 312.929 357.007C312.229 356.957 311.529 357.307 311.229 357.957V357.107H310.379V362.457ZM318.629 364.407C320.13 364.407 321.18 363.657 321.18 362.107V357.107H320.33V357.957C319.98 357.357 319.28 356.957 318.579 357.007C317.179 357.007 316.079 358.157 316.079 359.557C316.079 359.607 316.079 359.607 316.079 359.657V359.707C316.029 361.057 317.029 362.157 318.379 362.257C318.429 362.257 318.479 362.257 318.529 362.257C319.28 362.257 319.93 361.857 320.33 361.257V362.057C320.33 363.207 319.68 363.707 318.629 363.707C317.729 363.707 317.229 363.407 317.079 362.757H316.229C316.379 363.657 317.079 364.407 318.629 364.407ZM318.629 361.557C317.729 361.557 316.979 360.857 316.979 359.707V359.607C316.979 358.457 317.629 357.707 318.679 357.707C319.73 357.707 320.38 358.407 320.38 359.607V359.657C320.48 360.607 319.78 361.457 318.83 361.557C318.78 361.557 318.729 361.557 318.629 361.557Z" fill="white"/>
<path d="M271.971 388.157C272.971 388.157 273.821 388.957 273.821 390.007V405.608C273.821 406.608 273.021 407.458 271.971 407.458C270.971 407.458 270.121 406.658 270.121 405.608V390.007C270.121 389.007 270.971 388.157 271.971 388.157Z" fill="#B6B6B6" fill-opacity="0.64"/>
<path d="M249.971 349.756C248.171 349.656 247.471 348.606 247.371 347.356H248.671C248.671 348.106 249.221 348.706 249.971 348.756V346.406C248.421 346.156 247.621 345.556 247.621 344.256C247.621 343.106 248.571 342.206 249.971 342.106V341.156H250.671V342.106C252.021 342.206 252.871 342.956 252.971 344.256H251.721C251.671 343.656 251.221 343.206 250.621 343.156V345.306C252.171 345.556 253.071 346.106 253.071 347.506C253.071 348.756 252.171 349.706 250.621 349.806V351.106H249.921V349.756H249.971ZM249.971 345.156V343.106C249.271 343.206 248.871 343.606 248.871 344.106C248.871 344.606 249.071 344.956 249.971 345.156ZM250.671 346.456V348.706C251.321 348.706 251.821 348.206 251.821 347.556C251.821 346.956 251.571 346.706 250.671 346.456Z" fill="white"/>
<path d="M254.023 347.356H255.273C255.273 348.106 255.873 348.756 256.674 348.756C256.724 348.756 256.774 348.756 256.824 348.756C257.774 348.756 258.224 348.306 258.224 347.556C258.224 346.806 257.774 346.356 256.873 346.356H256.273V345.356H256.824C257.674 345.356 258.074 344.956 258.074 344.256C258.074 343.706 257.674 343.206 257.074 343.206C257.024 343.206 256.974 343.206 256.924 343.206C256.224 343.156 255.573 343.706 255.523 344.406H254.273C254.373 343.106 255.323 342.106 256.924 342.106C258.524 342.106 259.424 343.006 259.424 344.106C259.424 344.856 258.924 345.556 258.224 345.756C259.124 345.906 259.724 346.706 259.674 347.556C259.674 348.956 258.574 349.806 256.873 349.806C255.173 349.806 254.073 348.756 254.023 347.356Z" fill="white"/>
<path d="M260.723 346.256V346.056C260.723 343.456 262.023 342.056 263.823 342.056C265.173 342.056 266.073 342.706 266.273 344.056H264.973C264.923 343.506 264.373 343.106 263.823 343.156C262.823 343.156 262.173 344.056 262.123 345.756C262.523 345.106 263.223 344.756 263.973 344.806C265.273 344.756 266.373 345.756 266.423 347.056C266.423 347.106 266.423 347.207 266.423 347.257C266.423 348.757 265.373 349.807 263.673 349.807C261.473 349.757 260.723 348.257 260.723 346.256ZM265.023 347.257C265.073 346.456 264.523 345.756 263.723 345.706C262.923 345.656 262.223 346.206 262.173 347.007C262.173 347.057 262.173 347.106 262.173 347.156C262.073 347.957 262.623 348.657 263.423 348.707C263.473 348.707 263.573 348.707 263.623 348.707C264.373 348.707 265.023 348.107 265.023 347.357C265.073 347.357 265.023 347.307 265.023 347.257Z" fill="white"/>
<path d="M266.973 350.607L267.923 348.106L269.123 348.607L267.723 350.957L266.973 350.607Z" fill="white"/>
<path d="M269.723 346.106V345.706C269.723 343.406 270.973 342.056 272.873 342.056C274.773 342.056 276.023 343.456 276.023 345.706V346.106C276.023 348.357 274.873 349.807 272.873 349.807C270.873 349.807 269.723 348.357 269.723 346.106ZM274.623 346.056V345.706C274.623 344.106 274.023 343.156 272.873 343.156C271.723 343.156 271.123 344.056 271.123 345.706V346.106C271.123 347.807 271.773 348.657 272.923 348.657C274.073 348.657 274.623 347.757 274.623 346.056Z" fill="white"/>
<path d="M278.475 343.556L276.875 344.656V343.406L278.625 342.156H279.875V349.656H278.475V343.556Z" fill="white"/>
<path d="M281.324 347.356H282.574C282.574 348.106 283.174 348.756 283.974 348.756C284.024 348.756 284.074 348.756 284.074 348.756C285.074 348.756 285.474 348.306 285.474 347.556C285.474 346.806 285.024 346.356 284.124 346.356H283.524V345.356H284.074C284.924 345.356 285.324 344.956 285.324 344.256C285.324 343.706 284.924 343.206 284.324 343.206C284.274 343.206 284.224 343.206 284.174 343.206C283.474 343.156 282.824 343.706 282.774 344.406H281.524C281.624 343.106 282.574 342.106 284.174 342.106C285.774 342.106 286.674 343.006 286.674 344.106C286.674 344.856 286.174 345.556 285.474 345.756C286.374 345.906 286.974 346.706 286.924 347.556C286.924 348.956 285.824 349.806 284.124 349.806C282.424 349.806 281.374 348.756 281.324 347.356Z" fill="white"/>
</g>
<defs>
<linearGradient id="paint0_linear" x1="32.0747" y1="482.571" x2="305.099" y2="482.571" gradientUnits="userSpaceOnUse">
<stop stop-color="#00DF9A"/>
<stop offset="1" stop-color="#00DF8F"/>
</linearGradient>
<linearGradient id="paint1_linear" x1="272.299" y1="397.787" x2="32.2081" y2="397.787" gradientUnits="userSpaceOnUse">
<stop stop-color="#E38773"/>
<stop offset="1" stop-color="#B769E1"/>
</linearGradient>
<clipPath id="clip0">
<rect width="337.08" height="540.06" fill="white"/>
</clipPath>
</defs>
</svg>
