<svg width="10" height="10" viewBox="0 0 10 10" fill="none" xmlns="http://www.w3.org/2000/svg">
<path d="M9.72067 0.27808C9.34823 -0.0926932 8.74435 -0.0926932 8.37191 0.27808L5 3.63488L1.62809 0.27808C1.25565 -0.0926932 0.651772 -0.0926932 0.279331 0.27808C-0.0931102 0.648852 -0.0931102 1.25003 0.279331 1.6208L3.65124 4.97761L0.280582 8.33316C-0.0918585 8.70394 -0.0918585 9.30511 0.280582 9.67589C0.653023 10.0467 1.2569 10.0467 1.62935 9.67589L5 6.32033L8.37164 9.67687C8.74408 10.0476 9.34796 10.0476 9.7204 9.67687C10.0928 9.30609 10.0928 8.70492 9.7204 8.33414L6.34876 4.97761L9.72067 1.6208C10.0931 1.25003 10.0931 0.648897 9.72067 0.27808Z" fill="white"/>
</svg>
